<mxfile host="app.diagrams.net" modified="2021-10-28T21:38:50.403Z" agent="5.0 (Macintosh; Intel Mac OS X 10_15_7) AppleWebKit/605.1.15 (KHTML, like Gecko) Version/15.0 Safari/605.1.15" etag="f01wJLYfm_QRuAPYnNhG" version="15.6.1" type="github">
  <diagram id="6a731a19-8d31-9384-78a2-239565b7b9f0" name="Page-1">
    <mxGraphModel dx="2847" dy="1067" grid="1" gridSize="10" guides="1" tooltips="1" connect="1" arrows="1" fold="1" page="1" pageScale="1" pageWidth="1169" pageHeight="827" background="none" math="0" shadow="0">
      <root>
        <mxCell id="0" />
        <mxCell id="kbZLWcOoWII1aOp1QAB2-1891" value="Untitled Layer" parent="0" />
        <mxCell id="kbZLWcOoWII1aOp1QAB2-1892" value="" style="rounded=0;whiteSpace=wrap;html=1;fontSize=13;" vertex="1" parent="kbZLWcOoWII1aOp1QAB2-1891">
          <mxGeometry x="-120" width="2830" height="1640" as="geometry" />
        </mxCell>
        <mxCell id="1" style="locked=1;" parent="0" />
        <mxCell id="1350" value="Значимые люди" style="ellipse;whiteSpace=wrap;html=1;shadow=0;fontFamily=Helvetica;fontSize=20;fontColor=#FFFFFF;align=center;strokeWidth=3;fillColor=#1699D3;strokeColor=none;" parent="1" vertex="1">
          <mxGeometry x="523.5" y="271.5" width="120" height="120" as="geometry" />
        </mxCell>
        <mxCell id="1351" value="Кружки, кот в этом году пробовал" style="ellipse;whiteSpace=wrap;html=1;shadow=0;fontFamily=Helvetica;fontSize=20;fontColor=#FFFFFF;align=center;strokeWidth=3;fillColor=#F08705;strokeColor=none;gradientColor=none;" parent="1" vertex="1">
          <mxGeometry x="1103.5" y="241.5" width="156.5" height="120" as="geometry" />
        </mxCell>
        <mxCell id="1352" value="Лич кач-ва, эмоции, черты хар-ра" style="ellipse;whiteSpace=wrap;html=1;shadow=0;fontFamily=Helvetica;fontSize=20;fontColor=#FFFFFF;align=center;strokeWidth=3;fillColor=#E85642;strokeColor=none;" parent="1" vertex="1">
          <mxGeometry x="1701" y="356.5" width="159" height="120" as="geometry" />
        </mxCell>
        <mxCell id="1353" value="Навыки, умения, знания" style="ellipse;whiteSpace=wrap;html=1;shadow=0;fontFamily=Helvetica;fontSize=20;fontColor=#FFFFFF;align=center;strokeWidth=3;fillColor=#1699D3;strokeColor=none;" parent="1" vertex="1">
          <mxGeometry x="1936" y="806.5" width="120" height="120" as="geometry" />
        </mxCell>
        <mxCell id="1354" value="Книги&amp;nbsp;" style="ellipse;whiteSpace=wrap;html=1;shadow=0;fontFamily=Helvetica;fontSize=20;fontColor=#FFFFFF;align=center;strokeWidth=3;fillColor=#736ca8;strokeColor=none;" parent="1" vertex="1">
          <mxGeometry x="1610" y="1152.5" width="120" height="120" as="geometry" />
        </mxCell>
        <mxCell id="1355" value="Любит" style="ellipse;whiteSpace=wrap;html=1;shadow=0;fontFamily=Helvetica;fontSize=20;fontColor=#FFFFFF;align=center;strokeWidth=3;fillColor=#F08705;strokeColor=none;" parent="1" vertex="1">
          <mxGeometry x="820" y="1200.5" width="120" height="120" as="geometry" />
        </mxCell>
        <mxCell id="1357" value="Пони -&amp;gt; получилось, &lt;br&gt;но страшно повторить" style="rounded=1;fillColor=#f5af58;strokeColor=none;strokeWidth=3;shadow=0;html=1;fontColor=#FFFFFF;" parent="1" vertex="1">
          <mxGeometry x="898.25" y="311.5" width="161.75" height="40" as="geometry" />
        </mxCell>
        <mxCell id="1358" value="Дяди (братья родителей)" style="rounded=1;fillColor=#64BBE2;strokeColor=none;strokeWidth=3;shadow=0;html=1;fontColor=#FFFFFF;" parent="1" vertex="1">
          <mxGeometry x="272" y="341.5" width="166.5" height="40" as="geometry" />
        </mxCell>
        <mxCell id="1359" style="endArrow=none;strokeWidth=6;strokeColor=#1699D3;html=1;" parent="1" source="1515" target="1350" edge="1">
          <mxGeometry relative="1" as="geometry" />
        </mxCell>
        <mxCell id="1360" style="endArrow=none;strokeWidth=6;strokeColor=#f08705;html=1;" parent="1" source="1515" target="1351" edge="1">
          <mxGeometry relative="1" as="geometry" />
        </mxCell>
        <mxCell id="1361" style="endArrow=none;strokeWidth=6;strokeColor=#E85642;html=1;" parent="1" source="1515" target="1352" edge="1">
          <mxGeometry relative="1" as="geometry" />
        </mxCell>
        <mxCell id="1362" style="endArrow=none;strokeWidth=6;strokeColor=#1699D3;html=1;" parent="1" source="1515" target="1353" edge="1">
          <mxGeometry relative="1" as="geometry" />
        </mxCell>
        <mxCell id="1363" style="endArrow=none;strokeWidth=6;strokeColor=#736CA8;html=1;" parent="1" source="1515" target="1516" edge="1">
          <mxGeometry relative="1" as="geometry" />
        </mxCell>
        <mxCell id="1364" style="endArrow=none;strokeWidth=6;strokeColor=#736ca8;html=1;" parent="1" source="1515" target="1354" edge="1">
          <mxGeometry relative="1" as="geometry" />
        </mxCell>
        <mxCell id="1365" value="" style="edgeStyle=none;endArrow=none;strokeWidth=6;strokeColor=#F08705;html=1;" parent="1" source="1515" target="1355" edge="1">
          <mxGeometry x="181" y="226.5" width="100" height="100" as="geometry">
            <mxPoint x="181" y="326.5" as="sourcePoint" />
            <mxPoint x="281" y="226.5" as="targetPoint" />
          </mxGeometry>
        </mxCell>
        <mxCell id="1367" value="Друзья-дети &lt;br&gt;и их родители" style="rounded=1;fillColor=#64BBE2;strokeColor=none;strokeWidth=3;shadow=0;html=1;fontColor=#FFFFFF;" parent="1" vertex="1">
          <mxGeometry x="380" y="396.5" width="150" height="40" as="geometry" />
        </mxCell>
        <mxCell id="1368" value="Тетя, Пробабушка" style="rounded=1;fillColor=#64BBE2;strokeColor=none;strokeWidth=3;shadow=0;html=1;fontColor=#FFFFFF;" parent="1" vertex="1">
          <mxGeometry x="272" y="291.5" width="130" height="40" as="geometry" />
        </mxCell>
        <mxCell id="1369" value="Бабушка" style="rounded=1;fillColor=#64BBE2;strokeColor=none;strokeWidth=3;shadow=0;html=1;fontColor=#FFFFFF;" parent="1" vertex="1">
          <mxGeometry x="330" y="231.5" width="130" height="40" as="geometry" />
        </mxCell>
        <mxCell id="1370" value="СЕСТРЕНКА" style="rounded=1;fillColor=#64BBE2;strokeColor=none;strokeWidth=3;shadow=0;html=1;fontColor=#FFFFFF;" parent="1" vertex="1">
          <mxGeometry x="488.5" y="200" width="130" height="40" as="geometry" />
        </mxCell>
        <mxCell id="1371" value="МАМА" style="rounded=1;fillColor=#64BBE2;strokeColor=none;strokeWidth=3;shadow=0;html=1;fontColor=#FFFFFF;" parent="1" vertex="1">
          <mxGeometry x="408.5" y="146.5" width="130" height="40" as="geometry" />
        </mxCell>
        <mxCell id="1373" value="ПАПА" style="rounded=1;fillColor=#64BBE2;strokeColor=none;strokeWidth=3;shadow=0;html=1;fontColor=#FFFFFF;" parent="1" vertex="1">
          <mxGeometry x="553.5" y="146.5" width="130" height="40" as="geometry" />
        </mxCell>
        <mxCell id="1375" value="Индивидуальные репетиторы, &lt;br&gt;Воспитатели в саду, &lt;br&gt;Педагоги &lt;br&gt;в кружках и секциях" style="rounded=1;fillColor=#64BBE2;strokeColor=none;strokeWidth=3;shadow=0;html=1;fontColor=#FFFFFF;" parent="1" vertex="1">
          <mxGeometry x="650" y="238" width="191.5" height="93.5" as="geometry" />
        </mxCell>
        <mxCell id="1378" value="" style="edgeStyle=none;endArrow=none;strokeWidth=3;strokeColor=#64BBE2;html=1;" parent="1" source="1350" target="1367" edge="1">
          <mxGeometry x="-221.5" y="56.5" width="100" height="100" as="geometry">
            <mxPoint x="-221.5" y="156.5" as="sourcePoint" />
            <mxPoint x="-121.5" y="56.5" as="targetPoint" />
          </mxGeometry>
        </mxCell>
        <mxCell id="1379" value="" style="edgeStyle=none;endArrow=none;strokeWidth=3;strokeColor=#64BBE2;html=1;" parent="1" source="1350" target="1358" edge="1">
          <mxGeometry x="-221.5" y="56.5" width="100" height="100" as="geometry">
            <mxPoint x="-221.5" y="156.5" as="sourcePoint" />
            <mxPoint x="-121.5" y="56.5" as="targetPoint" />
          </mxGeometry>
        </mxCell>
        <mxCell id="1380" value="" style="edgeStyle=none;endArrow=none;strokeWidth=3;strokeColor=#64BBE2;html=1;" parent="1" source="1350" target="1368" edge="1">
          <mxGeometry x="-221.5" y="56.5" width="100" height="100" as="geometry">
            <mxPoint x="-221.5" y="156.5" as="sourcePoint" />
            <mxPoint x="-121.5" y="56.5" as="targetPoint" />
          </mxGeometry>
        </mxCell>
        <mxCell id="1381" value="" style="edgeStyle=none;endArrow=none;strokeWidth=3;strokeColor=#64BBE2;html=1;" parent="1" source="1350" target="1369" edge="1">
          <mxGeometry x="-221.5" y="56.5" width="100" height="100" as="geometry">
            <mxPoint x="-221.5" y="156.5" as="sourcePoint" />
            <mxPoint x="-121.5" y="56.5" as="targetPoint" />
          </mxGeometry>
        </mxCell>
        <mxCell id="1382" value="" style="edgeStyle=none;endArrow=none;strokeWidth=3;strokeColor=#64BBE2;html=1;" parent="1" source="1350" target="1370" edge="1">
          <mxGeometry x="-221.5" y="56.5" width="100" height="100" as="geometry">
            <mxPoint x="-221.5" y="156.5" as="sourcePoint" />
            <mxPoint x="-121.5" y="56.5" as="targetPoint" />
          </mxGeometry>
        </mxCell>
        <mxCell id="1383" value="" style="edgeStyle=none;endArrow=none;strokeWidth=3;strokeColor=#64BBE2;html=1;" parent="1" source="1350" target="1371" edge="1">
          <mxGeometry x="-221.5" y="56.5" width="100" height="100" as="geometry">
            <mxPoint x="-221.5" y="156.5" as="sourcePoint" />
            <mxPoint x="-121.5" y="56.5" as="targetPoint" />
          </mxGeometry>
        </mxCell>
        <mxCell id="1385" value="" style="edgeStyle=none;endArrow=none;strokeWidth=3;strokeColor=#64BBE2;html=1;" parent="1" source="1350" target="1373" edge="1">
          <mxGeometry x="-221.5" y="56.5" width="100" height="100" as="geometry">
            <mxPoint x="-221.5" y="156.5" as="sourcePoint" />
            <mxPoint x="-121.5" y="56.5" as="targetPoint" />
          </mxGeometry>
        </mxCell>
        <mxCell id="1387" value="" style="edgeStyle=none;endArrow=none;strokeWidth=3;strokeColor=#64BBE2;html=1;" parent="1" source="1350" target="1375" edge="1">
          <mxGeometry x="-221.5" y="56.5" width="100" height="100" as="geometry">
            <mxPoint x="-221.5" y="156.5" as="sourcePoint" />
            <mxPoint x="-121.5" y="56.5" as="targetPoint" />
          </mxGeometry>
        </mxCell>
        <mxCell id="1388" value="Самбо - любимое" style="rounded=1;fillColor=#f5af58;strokeColor=none;strokeWidth=3;shadow=0;html=1;fontColor=#FFFFFF;" parent="1" vertex="1">
          <mxGeometry x="1103.5" y="141.5" width="120" height="40" as="geometry" />
        </mxCell>
        <mxCell id="1389" value="Мультипликация +" style="rounded=1;fillColor=#f5af58;strokeColor=none;strokeWidth=3;shadow=0;html=1;fontColor=#FFFFFF;" parent="1" vertex="1">
          <mxGeometry x="850" y="161.5" width="120" height="40" as="geometry" />
        </mxCell>
        <mxCell id="1390" value="Робототехника wedo/wedo 2 ++" style="rounded=1;fillColor=#f5af58;strokeColor=none;strokeWidth=3;shadow=0;html=1;fontColor=#FFFFFF;" parent="1" vertex="1">
          <mxGeometry x="851.75" y="121.5" width="183.5" height="40" as="geometry" />
        </mxCell>
        <mxCell id="1392" value="Инжинириум - любимое" style="rounded=1;fillColor=#f5af58;strokeColor=none;strokeWidth=3;shadow=0;html=1;fontColor=#FFFFFF;" parent="1" vertex="1">
          <mxGeometry x="970" y="81.5" width="183.5" height="40" as="geometry" />
        </mxCell>
        <mxCell id="1393" value="Спорт.гимнастика - любимое" style="rounded=1;fillColor=#f5af58;strokeColor=none;strokeWidth=3;shadow=0;html=1;fontColor=#FFFFFF;" parent="1" vertex="1">
          <mxGeometry x="1163.5" y="81.5" width="206.5" height="40" as="geometry" />
        </mxCell>
        <mxCell id="1394" value="Шахматы + - скучно на кружке, &lt;br&gt;но с родителями нра" style="rounded=1;fillColor=#f5af58;strokeColor=none;strokeWidth=3;shadow=0;html=1;fontColor=#FFFFFF;" parent="1" vertex="1">
          <mxGeometry x="1270.25" y="150" width="199.75" height="31.5" as="geometry" />
        </mxCell>
        <mxCell id="1395" value="Шашки +" style="rounded=1;fillColor=#f5af58;strokeColor=none;strokeWidth=3;shadow=0;html=1;fontColor=#FFFFFF;" parent="1" vertex="1">
          <mxGeometry x="1353.75" y="188" width="115.75" height="18.5" as="geometry" />
        </mxCell>
        <mxCell id="1396" value="Танцы: брейк&lt;br&gt;&quot;я так и дома могу&quot;" style="rounded=1;fillColor=#f5af58;strokeColor=none;strokeWidth=3;shadow=0;html=1;fontColor=#FFFFFF;" parent="1" vertex="1">
          <mxGeometry x="1298.5" y="260" width="191.5" height="51.5" as="geometry" />
        </mxCell>
        <mxCell id="1397" value="Танцы: хип хоп - не понравилось&lt;br&gt;&amp;nbsp;тк вспотел" style="rounded=1;fillColor=#f5af58;strokeColor=none;strokeWidth=3;shadow=0;html=1;fontColor=#FFFFFF;" parent="1" vertex="1">
          <mxGeometry x="1303.5" y="315" width="196.5" height="68.5" as="geometry" />
        </mxCell>
        <mxCell id="1398" value="Теннис -&lt;br&gt;&amp;nbsp;не понравился как спорт" style="rounded=1;fillColor=#f5af58;strokeColor=none;strokeWidth=3;shadow=0;html=1;fontColor=#FFFFFF;" parent="1" vertex="1">
          <mxGeometry x="903.5" y="371.5" width="168.5" height="40" as="geometry" />
        </mxCell>
        <mxCell id="1399" value="" style="edgeStyle=none;endArrow=none;strokeWidth=3;strokeColor=#F5AF58;html=1;" parent="1" source="1351" target="1357" edge="1">
          <mxGeometry x="3.5" y="21.5" width="100" height="100" as="geometry">
            <mxPoint x="3.5" y="121.5" as="sourcePoint" />
            <mxPoint x="103.5" y="21.5" as="targetPoint" />
          </mxGeometry>
        </mxCell>
        <mxCell id="1400" value="" style="edgeStyle=none;endArrow=none;strokeWidth=3;strokeColor=#F5AF58;html=1;" parent="1" source="1351" target="1388" edge="1">
          <mxGeometry x="3.5" y="21.5" width="100" height="100" as="geometry">
            <mxPoint x="3.5" y="121.5" as="sourcePoint" />
            <mxPoint x="103.5" y="21.5" as="targetPoint" />
          </mxGeometry>
        </mxCell>
        <mxCell id="1401" value="" style="edgeStyle=none;endArrow=none;strokeWidth=3;strokeColor=#F5AF58;html=1;" parent="1" source="1351" target="1389" edge="1">
          <mxGeometry x="3.5" y="21.5" width="100" height="100" as="geometry">
            <mxPoint x="3.5" y="121.5" as="sourcePoint" />
            <mxPoint x="103.5" y="21.5" as="targetPoint" />
          </mxGeometry>
        </mxCell>
        <mxCell id="1403" value="" style="edgeStyle=none;endArrow=none;strokeWidth=3;strokeColor=#F5AF58;html=1;" parent="1" source="1351" target="1391" edge="1">
          <mxGeometry x="3.5" y="21.5" width="100" height="100" as="geometry">
            <mxPoint x="3.5" y="121.5" as="sourcePoint" />
            <mxPoint x="103.5" y="21.5" as="targetPoint" />
          </mxGeometry>
        </mxCell>
        <mxCell id="1404" value="" style="edgeStyle=none;endArrow=none;strokeWidth=3;strokeColor=#F5AF58;html=1;" parent="1" source="1351" target="1392" edge="1">
          <mxGeometry x="3.5" y="21.5" width="100" height="100" as="geometry">
            <mxPoint x="3.5" y="121.5" as="sourcePoint" />
            <mxPoint x="103.5" y="21.5" as="targetPoint" />
          </mxGeometry>
        </mxCell>
        <mxCell id="1405" value="" style="edgeStyle=none;endArrow=none;strokeWidth=3;strokeColor=#F5AF58;html=1;" parent="1" source="1351" target="1393" edge="1">
          <mxGeometry x="3.5" y="21.5" width="100" height="100" as="geometry">
            <mxPoint x="3.5" y="121.5" as="sourcePoint" />
            <mxPoint x="103.5" y="21.5" as="targetPoint" />
          </mxGeometry>
        </mxCell>
        <mxCell id="1406" value="" style="edgeStyle=none;endArrow=none;strokeWidth=3;strokeColor=#F5AF58;html=1;" parent="1" source="1351" target="1394" edge="1">
          <mxGeometry x="3.5" y="21.5" width="100" height="100" as="geometry">
            <mxPoint x="3.5" y="121.5" as="sourcePoint" />
            <mxPoint x="103.5" y="21.5" as="targetPoint" />
          </mxGeometry>
        </mxCell>
        <mxCell id="1407" value="" style="edgeStyle=none;endArrow=none;strokeWidth=3;strokeColor=#F5AF58;html=1;" parent="1" source="1351" target="1395" edge="1">
          <mxGeometry x="3.5" y="21.5" width="100" height="100" as="geometry">
            <mxPoint x="3.5" y="121.5" as="sourcePoint" />
            <mxPoint x="103.5" y="21.5" as="targetPoint" />
          </mxGeometry>
        </mxCell>
        <mxCell id="1408" value="" style="edgeStyle=none;endArrow=none;strokeWidth=3;strokeColor=#F5AF58;html=1;" parent="1" source="1351" target="1396" edge="1">
          <mxGeometry x="3.5" y="21.5" width="100" height="100" as="geometry">
            <mxPoint x="3.5" y="121.5" as="sourcePoint" />
            <mxPoint x="103.5" y="21.5" as="targetPoint" />
          </mxGeometry>
        </mxCell>
        <mxCell id="1409" value="" style="edgeStyle=none;endArrow=none;strokeWidth=3;strokeColor=#F5AF58;html=1;" parent="1" source="1351" target="1397" edge="1">
          <mxGeometry x="3.5" y="21.5" width="100" height="100" as="geometry">
            <mxPoint x="3.5" y="121.5" as="sourcePoint" />
            <mxPoint x="103.5" y="21.5" as="targetPoint" />
          </mxGeometry>
        </mxCell>
        <mxCell id="1410" value="" style="edgeStyle=none;endArrow=none;strokeWidth=3;strokeColor=#F5AF58;html=1;" parent="1" source="1351" target="1398" edge="1">
          <mxGeometry x="3.5" y="21.5" width="100" height="100" as="geometry">
            <mxPoint x="3.5" y="121.5" as="sourcePoint" />
            <mxPoint x="103.5" y="21.5" as="targetPoint" />
          </mxGeometry>
        </mxCell>
        <mxCell id="1411" value="Впускает в свой круг через &lt;br&gt;совместное творчество" style="rounded=1;fillColor=#f08e81;strokeColor=none;strokeWidth=3;shadow=0;html=1;fontColor=#FFFFFF;" parent="1" vertex="1">
          <mxGeometry x="2270" y="301.5" width="259" height="40" as="geometry" />
        </mxCell>
        <mxCell id="1412" value="Стесняется новых взрослых" style="rounded=1;fillColor=#f08e81;strokeColor=none;strokeWidth=3;shadow=0;html=1;fontColor=#FFFFFF;" parent="1" vertex="1">
          <mxGeometry x="2047" y="316.5" width="194" height="40" as="geometry" />
        </mxCell>
        <mxCell id="1413" value="Шумный" style="rounded=1;fillColor=#f08e81;strokeColor=none;strokeWidth=3;shadow=0;html=1;fontColor=#FFFFFF;" parent="1" vertex="1">
          <mxGeometry x="1786.5" y="241.5" width="120" height="40" as="geometry" />
        </mxCell>
        <mxCell id="1414" value="Активный" style="rounded=1;fillColor=#f08e81;strokeColor=none;strokeWidth=3;shadow=0;html=1;fontColor=#FFFFFF;" parent="1" vertex="1">
          <mxGeometry x="1516" y="301.5" width="121" height="25" as="geometry" />
        </mxCell>
        <mxCell id="1416" value="Добрый, ласковый, заботливый" style="rounded=1;fillColor=#f08e81;strokeColor=none;strokeWidth=3;shadow=0;html=1;fontColor=#FFFFFF;" parent="1" vertex="1">
          <mxGeometry x="1509" y="216.5" width="200" height="23.5" as="geometry" />
        </mxCell>
        <mxCell id="1417" value="Веселый, &lt;br&gt;любит смеяться, улыбаться" style="rounded=1;fillColor=#f08e81;strokeColor=none;strokeWidth=3;shadow=0;html=1;fontColor=#FFFFFF;" parent="1" vertex="1">
          <mxGeometry x="1680" y="160" width="206" height="46.5" as="geometry" />
        </mxCell>
        <mxCell id="1418" value="Коммуникабельный, &lt;br&gt;быстро и легко заводит &lt;br&gt;знакомства" style="rounded=1;fillColor=#f08e81;strokeColor=none;strokeWidth=3;shadow=0;html=1;fontColor=#FFFFFF;" parent="1" vertex="1">
          <mxGeometry x="1901" y="170" width="181" height="71.5" as="geometry" />
        </mxCell>
        <mxCell id="1420" value="Сразу после занятия может сказать, что не помнит что было, &lt;br&gt;но рассказывает получ ифнорм через полгода" style="rounded=1;fillColor=#f08e81;strokeColor=none;strokeWidth=3;shadow=0;html=1;fontColor=#FFFFFF;" parent="1" vertex="1">
          <mxGeometry x="1810" y="561.5" width="390" height="33.5" as="geometry" />
        </mxCell>
        <mxCell id="1421" value="Чаще знания быстрее усваивает при индивид с педагогом, &lt;br&gt;чем в группе, если там &quot;друзья&quot; - отвлекается, играет, болтает" style="rounded=1;fillColor=#f08e81;strokeColor=none;strokeWidth=3;shadow=0;html=1;fontColor=#FFFFFF;" parent="1" vertex="1">
          <mxGeometry x="2052" y="431.5" width="378" height="38.5" as="geometry" />
        </mxCell>
        <mxCell id="1422" value="На адаптацию около 30 мин&amp;nbsp;" style="rounded=1;fillColor=#f08e81;strokeColor=none;strokeWidth=3;shadow=0;html=1;fontColor=#FFFFFF;" parent="1" vertex="1">
          <mxGeometry x="2140" y="356.5" width="210" height="23.5" as="geometry" />
        </mxCell>
        <mxCell id="1423" value="" style="edgeStyle=none;endArrow=none;strokeWidth=3;strokeColor=#F08E81;html=1;" parent="1" source="1352" target="1411" edge="1">
          <mxGeometry x="31" y="106.5" width="100" height="100" as="geometry">
            <mxPoint x="31" y="206.5" as="sourcePoint" />
            <mxPoint x="131" y="106.5" as="targetPoint" />
          </mxGeometry>
        </mxCell>
        <mxCell id="1424" value="" style="edgeStyle=none;endArrow=none;strokeWidth=3;strokeColor=#F08E81;html=1;" parent="1" source="1352" target="1413" edge="1">
          <mxGeometry x="31" y="106.5" width="100" height="100" as="geometry">
            <mxPoint x="31" y="206.5" as="sourcePoint" />
            <mxPoint x="131" y="106.5" as="targetPoint" />
          </mxGeometry>
        </mxCell>
        <mxCell id="1425" value="" style="edgeStyle=none;endArrow=none;strokeWidth=3;strokeColor=#F08E81;html=1;" parent="1" source="1352" target="1414" edge="1">
          <mxGeometry x="31" y="106.5" width="100" height="100" as="geometry">
            <mxPoint x="31" y="206.5" as="sourcePoint" />
            <mxPoint x="131" y="106.5" as="targetPoint" />
          </mxGeometry>
        </mxCell>
        <mxCell id="1427" value="" style="edgeStyle=none;endArrow=none;strokeWidth=3;strokeColor=#F08E81;html=1;startArrow=none;exitX=0.248;exitY=0.075;exitDx=0;exitDy=0;exitPerimeter=0;" parent="1" source="1352" target="1416" edge="1">
          <mxGeometry x="31" y="106.5" width="100" height="100" as="geometry">
            <mxPoint x="1660" y="280" as="sourcePoint" />
            <mxPoint x="131" y="106.5" as="targetPoint" />
            <Array as="points" />
          </mxGeometry>
        </mxCell>
        <mxCell id="1428" value="" style="edgeStyle=none;endArrow=none;strokeWidth=3;strokeColor=#F08E81;html=1;" parent="1" source="1352" target="1417" edge="1">
          <mxGeometry x="31" y="106.5" width="100" height="100" as="geometry">
            <mxPoint x="31" y="206.5" as="sourcePoint" />
            <mxPoint x="131" y="106.5" as="targetPoint" />
          </mxGeometry>
        </mxCell>
        <mxCell id="1429" value="" style="edgeStyle=none;endArrow=none;strokeWidth=3;strokeColor=#F08E81;html=1;" parent="1" source="1352" target="1418" edge="1">
          <mxGeometry x="31" y="106.5" width="100" height="100" as="geometry">
            <mxPoint x="31" y="206.5" as="sourcePoint" />
            <mxPoint x="131" y="106.5" as="targetPoint" />
          </mxGeometry>
        </mxCell>
        <mxCell id="1430" value="" style="edgeStyle=none;endArrow=none;strokeWidth=3;strokeColor=#F08E81;html=1;" parent="1" source="1352" edge="1">
          <mxGeometry x="31" y="106.5" width="100" height="100" as="geometry">
            <mxPoint x="31" y="206.5" as="sourcePoint" />
            <mxPoint x="2037.555028462998" y="310.5" as="targetPoint" />
          </mxGeometry>
        </mxCell>
        <mxCell id="1431" value="" style="edgeStyle=none;endArrow=none;strokeWidth=3;strokeColor=#F08E81;html=1;" parent="1" source="1352" target="1412" edge="1">
          <mxGeometry x="31" y="106.5" width="100" height="100" as="geometry">
            <mxPoint x="31" y="206.5" as="sourcePoint" />
            <mxPoint x="131" y="106.5" as="targetPoint" />
          </mxGeometry>
        </mxCell>
        <mxCell id="1432" value="" style="edgeStyle=none;endArrow=none;strokeWidth=3;strokeColor=#F08E81;html=1;" parent="1" source="1352" target="1422" edge="1">
          <mxGeometry x="31" y="106.5" width="100" height="100" as="geometry">
            <mxPoint x="31" y="206.5" as="sourcePoint" />
            <mxPoint x="131" y="106.5" as="targetPoint" />
          </mxGeometry>
        </mxCell>
        <mxCell id="1433" value="" style="edgeStyle=none;endArrow=none;strokeWidth=3;strokeColor=#F08E81;html=1;startArrow=none;entryX=0;entryY=0.5;entryDx=0;entryDy=0;" parent="1" source="1352" target="1421" edge="1">
          <mxGeometry x="31" y="106.5" width="100" height="100" as="geometry">
            <mxPoint x="31" y="206.5" as="sourcePoint" />
            <mxPoint x="2040" y="470" as="targetPoint" />
            <Array as="points" />
          </mxGeometry>
        </mxCell>
        <mxCell id="1434" value="" style="edgeStyle=none;endArrow=none;strokeWidth=3;strokeColor=#F08E81;html=1;" parent="1" source="1352" target="1420" edge="1">
          <mxGeometry x="31" y="106.5" width="100" height="100" as="geometry">
            <mxPoint x="31" y="206.5" as="sourcePoint" />
            <mxPoint x="131" y="106.5" as="targetPoint" />
          </mxGeometry>
        </mxCell>
        <mxCell id="1435" value="Языки&lt;br&gt;&lt;span&gt;(просит родителей говорить с ним &lt;br&gt;на русс и злится если на др, &lt;br&gt;при этом читать можно и на др;&amp;nbsp;&lt;br&gt;мульты дома только на&amp;nbsp;&lt;/span&gt;англ)" style="rounded=1;fillColor=#64BBE2;strokeColor=none;strokeWidth=3;shadow=0;html=1;fontColor=#FFFFFF;" parent="1" vertex="1">
          <mxGeometry x="1661" y="730" width="230" height="88" as="geometry" />
        </mxCell>
        <mxCell id="1436" value="Математика&lt;br&gt;&amp;nbsp;(любит числа, считать)" style="rounded=1;fillColor=#64BBE2;strokeColor=none;strokeWidth=3;shadow=0;html=1;fontColor=#FFFFFF;" parent="1" vertex="1">
          <mxGeometry x="1771.5" y="606.75" width="150" height="76.5" as="geometry" />
        </mxCell>
        <mxCell id="1437" value="Чтение (для него обязательно &lt;br&gt;перед сном несколько книг на русс и на англ), &lt;br&gt;сам пока не стремится" style="rounded=1;fillColor=#64BBE2;strokeColor=none;strokeWidth=3;shadow=0;html=1;fontColor=#FFFFFF;" parent="1" vertex="1">
          <mxGeometry x="1962" y="610" width="268" height="70" as="geometry" />
        </mxCell>
        <mxCell id="1439" value="Физ активность - &amp;nbsp;нравится гимнастика, &lt;br&gt;самбо, бегать, танцевать свои танцы" style="rounded=1;fillColor=#64BBE2;strokeColor=none;strokeWidth=3;shadow=0;html=1;fontColor=#FFFFFF;" parent="1" vertex="1">
          <mxGeometry x="2101" y="690" width="279" height="56.5" as="geometry" />
        </mxCell>
        <mxCell id="1440" value="Творчество (меньше всего любит аппликацию, &amp;nbsp;тк с ножницами самостоятельно &lt;br&gt;не получается ровно и&amp;nbsp;это его расстраивает), всё остальное любит &lt;br&gt;(лепка, рисование, раскрашивание и тп) и интересно совместностое с кем то" style="rounded=1;fillColor=#64BBE2;strokeColor=none;strokeWidth=3;shadow=0;html=1;fontColor=#FFFFFF;" parent="1" vertex="1">
          <mxGeometry x="2190" y="780" width="470" height="70" as="geometry" />
        </mxCell>
        <mxCell id="1441" value="Изучает космос (планеты), природу (муравьи), &lt;br&gt;инженерия (как самолеты, поезда ракеты и тп)" style="rounded=1;fillColor=#64BBE2;strokeColor=none;strokeWidth=3;shadow=0;html=1;fontColor=#FFFFFF;" parent="1" vertex="1">
          <mxGeometry x="2121" y="966.5" width="319" height="53.5" as="geometry" />
        </mxCell>
        <mxCell id="1442" value="ИТ (тел, прист, планш, ноут - дается легко), &lt;br&gt;любит когда н-р в программировании можно записать голосом,&lt;br&gt;любит смотреть видео как он что-то делал" style="rounded=1;fillColor=#64BBE2;strokeColor=none;strokeWidth=3;shadow=0;html=1;fontColor=#FFFFFF;" parent="1" vertex="1">
          <mxGeometry x="2181" y="871.5" width="399" height="68.5" as="geometry" />
        </mxCell>
        <mxCell id="1444" value="Музыка - любит включать на Алисе любимые песни" style="rounded=1;fillColor=#64BBE2;strokeColor=none;strokeWidth=3;shadow=0;html=1;fontColor=#FFFFFF;" parent="1" vertex="1">
          <mxGeometry x="1760" y="956.5" width="310" height="63.5" as="geometry" />
        </mxCell>
        <mxCell id="1445" value="Нравится выполнять задания по видео-урокам, &lt;br&gt;но обязательно с внесением от себя - цвета/формы/элемента" style="rounded=1;fillColor=#64BBE2;strokeColor=none;strokeWidth=3;shadow=0;html=1;fontColor=#FFFFFF;" parent="1" vertex="1">
          <mxGeometry x="1480" y="891.5" width="396" height="48.5" as="geometry" />
        </mxCell>
        <mxCell id="1446" value="" style="edgeStyle=none;endArrow=none;strokeWidth=3;strokeColor=#64BBE2;html=1;" parent="1" source="1353" target="1435" edge="1">
          <mxGeometry x="-24" y="196.5" width="100" height="100" as="geometry">
            <mxPoint x="-24" y="296.5" as="sourcePoint" />
            <mxPoint x="76" y="196.5" as="targetPoint" />
          </mxGeometry>
        </mxCell>
        <mxCell id="1447" value="" style="edgeStyle=none;endArrow=none;strokeWidth=3;strokeColor=#64BBE2;html=1;" parent="1" source="1353" target="1436" edge="1">
          <mxGeometry x="-24" y="196.5" width="100" height="100" as="geometry">
            <mxPoint x="-24" y="296.5" as="sourcePoint" />
            <mxPoint x="76" y="196.5" as="targetPoint" />
          </mxGeometry>
        </mxCell>
        <mxCell id="1448" value="" style="edgeStyle=none;endArrow=none;strokeWidth=3;strokeColor=#64BBE2;html=1;" parent="1" source="1353" target="1437" edge="1">
          <mxGeometry x="-24" y="196.5" width="100" height="100" as="geometry">
            <mxPoint x="-24" y="296.5" as="sourcePoint" />
            <mxPoint x="76" y="196.5" as="targetPoint" />
          </mxGeometry>
        </mxCell>
        <mxCell id="1450" value="" style="edgeStyle=none;endArrow=none;strokeWidth=3;strokeColor=#64BBE2;html=1;" parent="1" source="1353" target="1439" edge="1">
          <mxGeometry x="-24" y="196.5" width="100" height="100" as="geometry">
            <mxPoint x="-24" y="296.5" as="sourcePoint" />
            <mxPoint x="76" y="196.5" as="targetPoint" />
          </mxGeometry>
        </mxCell>
        <mxCell id="1451" value="" style="edgeStyle=none;endArrow=none;strokeWidth=3;strokeColor=#64BBE2;html=1;" parent="1" source="1353" target="1440" edge="1">
          <mxGeometry x="-24" y="196.5" width="100" height="100" as="geometry">
            <mxPoint x="-24" y="296.5" as="sourcePoint" />
            <mxPoint x="76" y="196.5" as="targetPoint" />
          </mxGeometry>
        </mxCell>
        <mxCell id="1452" value="" style="edgeStyle=none;endArrow=none;strokeWidth=3;strokeColor=#64BBE2;html=1;" parent="1" source="1353" target="1442" edge="1">
          <mxGeometry x="-24" y="196.5" width="100" height="100" as="geometry">
            <mxPoint x="-24" y="296.5" as="sourcePoint" />
            <mxPoint x="76" y="196.5" as="targetPoint" />
          </mxGeometry>
        </mxCell>
        <mxCell id="1453" value="" style="edgeStyle=none;endArrow=none;strokeWidth=3;strokeColor=#64BBE2;html=1;" parent="1" source="1353" target="1441" edge="1">
          <mxGeometry x="-24" y="196.5" width="100" height="100" as="geometry">
            <mxPoint x="-24" y="296.5" as="sourcePoint" />
            <mxPoint x="76" y="196.5" as="targetPoint" />
          </mxGeometry>
        </mxCell>
        <mxCell id="1455" value="" style="edgeStyle=none;endArrow=none;strokeWidth=3;strokeColor=#64BBE2;html=1;" parent="1" source="1353" target="1444" edge="1">
          <mxGeometry x="-24" y="196.5" width="100" height="100" as="geometry">
            <mxPoint x="-24" y="296.5" as="sourcePoint" />
            <mxPoint x="76" y="196.5" as="targetPoint" />
          </mxGeometry>
        </mxCell>
        <mxCell id="1456" value="" style="edgeStyle=none;endArrow=none;strokeWidth=3;strokeColor=#64BBE2;html=1;" parent="1" source="1353" target="1445" edge="1">
          <mxGeometry x="-24" y="196.5" width="100" height="100" as="geometry">
            <mxPoint x="-24" y="296.5" as="sourcePoint" />
            <mxPoint x="76" y="196.5" as="targetPoint" />
          </mxGeometry>
        </mxCell>
        <mxCell id="1457" value="Эмоциональный интеллект&amp;nbsp;" style="rounded=1;fillColor=#a29dc5;strokeColor=none;strokeWidth=3;shadow=0;html=1;fontColor=#FFFFFF;" parent="1" vertex="1">
          <mxGeometry x="1637" y="1046.5" width="194" height="37" as="geometry" />
        </mxCell>
        <mxCell id="1458" value="Математика&amp;nbsp;" style="rounded=1;fillColor=#a29dc5;strokeColor=none;strokeWidth=3;shadow=0;html=1;fontColor=#FFFFFF;" parent="1" vertex="1">
          <mxGeometry x="1907" y="1270.5" width="150" height="36" as="geometry" />
        </mxCell>
        <mxCell id="1459" value="Животные &lt;br&gt;и насекомые" style="rounded=1;fillColor=#a29dc5;strokeColor=none;strokeWidth=3;shadow=0;html=1;fontColor=#FFFFFF;" parent="1" vertex="1">
          <mxGeometry x="1890" y="1114" width="120" height="40" as="geometry" />
        </mxCell>
        <mxCell id="1460" value="Дружба" style="rounded=1;fillColor=#a29dc5;strokeColor=none;strokeWidth=3;shadow=0;html=1;fontColor=#FFFFFF;" parent="1" vertex="1">
          <mxGeometry x="1751" y="1086.5" width="119" height="23.5" as="geometry" />
        </mxCell>
        <mxCell id="1461" value="Супергерои" style="rounded=1;fillColor=#a29dc5;strokeColor=none;strokeWidth=3;shadow=0;html=1;fontColor=#FFFFFF;" parent="1" vertex="1">
          <mxGeometry x="1932" y="1198.5" width="120" height="40" as="geometry" />
        </mxCell>
        <mxCell id="1462" value="Инженерия&amp;nbsp;" style="rounded=1;fillColor=#a29dc5;strokeColor=none;strokeWidth=3;shadow=0;html=1;fontColor=#FFFFFF;" parent="1" vertex="1">
          <mxGeometry x="1751" y="1320.5" width="181" height="38.5" as="geometry" />
        </mxCell>
        <mxCell id="1463" value="" style="edgeStyle=none;endArrow=none;strokeWidth=3;strokeColor=#A29DC5;html=1;" parent="1" source="1354" target="1460" edge="1">
          <mxGeometry x="251" y="-103.5" width="100" height="100" as="geometry">
            <mxPoint x="251" y="-3.5" as="sourcePoint" />
            <mxPoint x="351" y="-103.5" as="targetPoint" />
          </mxGeometry>
        </mxCell>
        <mxCell id="1464" value="" style="edgeStyle=none;endArrow=none;strokeWidth=3;strokeColor=#A29DC5;html=1;" parent="1" source="1354" target="1461" edge="1">
          <mxGeometry x="251" y="-103.5" width="100" height="100" as="geometry">
            <mxPoint x="251" y="-3.5" as="sourcePoint" />
            <mxPoint x="351" y="-103.5" as="targetPoint" />
          </mxGeometry>
        </mxCell>
        <mxCell id="1465" value="" style="edgeStyle=none;endArrow=none;strokeWidth=3;strokeColor=#A29DC5;html=1;" parent="1" source="1354" target="1458" edge="1">
          <mxGeometry x="251" y="-103.5" width="100" height="100" as="geometry">
            <mxPoint x="251" y="-3.5" as="sourcePoint" />
            <mxPoint x="351" y="-103.5" as="targetPoint" />
          </mxGeometry>
        </mxCell>
        <mxCell id="1466" value="" style="edgeStyle=none;endArrow=none;strokeWidth=3;strokeColor=#A29DC5;html=1;" parent="1" source="1354" target="1462" edge="1">
          <mxGeometry x="251" y="-103.5" width="100" height="100" as="geometry">
            <mxPoint x="251" y="-3.5" as="sourcePoint" />
            <mxPoint x="351" y="-103.5" as="targetPoint" />
          </mxGeometry>
        </mxCell>
        <mxCell id="1467" value="" style="edgeStyle=none;endArrow=none;strokeWidth=3;strokeColor=#A29DC5;html=1;" parent="1" source="1354" target="1457" edge="1">
          <mxGeometry x="251" y="-103.5" width="100" height="100" as="geometry">
            <mxPoint x="251" y="-3.5" as="sourcePoint" />
            <mxPoint x="351" y="-103.5" as="targetPoint" />
          </mxGeometry>
        </mxCell>
        <mxCell id="1468" value="ВМЕСТЕ с родителями ездить / &lt;br&gt;делать (почти всё что угодно),&amp;nbsp;&lt;br&gt;просто быть рядом" style="rounded=1;fillColor=#f5af58;strokeColor=none;strokeWidth=3;shadow=0;html=1;fontColor=#FFFFFF;" parent="1" vertex="1">
          <mxGeometry x="1132.38" y="1110" width="257.62" height="70" as="geometry" />
        </mxCell>
        <mxCell id="1469" value="Синий цвет" style="rounded=1;fillColor=#f5af58;strokeColor=none;strokeWidth=3;shadow=0;html=1;fontColor=#FFFFFF;" parent="1" vertex="1">
          <mxGeometry x="466.75" y="1346.5" width="120" height="40" as="geometry" />
        </mxCell>
        <mxCell id="1470" value="Стильно наряжаться&lt;br&gt;&amp;nbsp;(в тч выбирать одежду/обувь к покупке онлайн)" style="rounded=1;fillColor=#f5af58;strokeColor=none;strokeWidth=3;shadow=0;html=1;fontColor=#FFFFFF;" parent="1" vertex="1">
          <mxGeometry x="856" y="1480" width="297.5" height="40" as="geometry" />
        </mxCell>
        <mxCell id="1471" value="Носить разные носки" style="rounded=1;fillColor=#f5af58;strokeColor=none;strokeWidth=3;shadow=0;html=1;fontColor=#FFFFFF;" parent="1" vertex="1">
          <mxGeometry x="740" y="1430" width="176.5" height="40" as="geometry" />
        </mxCell>
        <mxCell id="1472" value="Свою семью (обниматься, целоваться, &lt;br&gt;рассказывать как сильно любит)" style="rounded=1;fillColor=#f5af58;strokeColor=none;strokeWidth=3;shadow=0;html=1;fontColor=#FFFFFF;" parent="1" vertex="1">
          <mxGeometry x="502.5" y="1490" width="232" height="50" as="geometry" />
        </mxCell>
        <mxCell id="1473" value="Воду и молоко" style="rounded=1;fillColor=#f5af58;strokeColor=none;strokeWidth=3;shadow=0;html=1;fontColor=#FFFFFF;" parent="1" vertex="1">
          <mxGeometry x="378.5" y="1278.5" width="190" height="20" as="geometry" />
        </mxCell>
        <mxCell id="1474" value="Макароны, картошку, рис" style="rounded=1;fillColor=#f5af58;strokeColor=none;strokeWidth=3;shadow=0;html=1;fontColor=#FFFFFF;" parent="1" vertex="1">
          <mxGeometry x="399" y="1246.5" width="185" height="26" as="geometry" />
        </mxCell>
        <mxCell id="1475" value="Огурец, банан, авокадо, манго" style="rounded=1;fillColor=#f5af58;strokeColor=none;strokeWidth=3;shadow=0;html=1;fontColor=#FFFFFF;" parent="1" vertex="1">
          <mxGeometry x="432" y="1222" width="189.5" height="19" as="geometry" />
        </mxCell>
        <mxCell id="1476" value="Стабильность, Постоянство &lt;br&gt;(и боязнь попробовать новое)" style="rounded=1;fillColor=#f5af58;strokeColor=none;strokeWidth=3;shadow=0;html=1;fontColor=#FFFFFF;" parent="1" vertex="1">
          <mxGeometry x="470" y="1029.75" width="221" height="43.5" as="geometry" />
        </mxCell>
        <mxCell id="1478" value="Море, камушки, песок" style="rounded=1;fillColor=#f5af58;strokeColor=none;strokeWidth=3;shadow=0;html=1;fontColor=#FFFFFF;" parent="1" vertex="1">
          <mxGeometry x="1088.5" y="1206.5" width="150" height="40" as="geometry" />
        </mxCell>
        <mxCell id="1479" value="" style="edgeStyle=none;endArrow=none;strokeWidth=3;strokeColor=#F5AF58;html=1;" parent="1" source="1355" target="1478" edge="1">
          <mxGeometry x="243.5" y="39" width="100" height="100" as="geometry">
            <mxPoint x="243.5" y="139" as="sourcePoint" />
            <mxPoint x="343.5" y="39" as="targetPoint" />
          </mxGeometry>
        </mxCell>
        <mxCell id="1480" value="" style="edgeStyle=none;endArrow=none;strokeWidth=3;strokeColor=#F5AF58;html=1;" parent="1" source="1355" target="1468" edge="1">
          <mxGeometry x="243.5" y="39" width="100" height="100" as="geometry">
            <mxPoint x="243.5" y="139" as="sourcePoint" />
            <mxPoint x="343.5" y="39" as="targetPoint" />
          </mxGeometry>
        </mxCell>
        <mxCell id="1481" value="" style="edgeStyle=none;endArrow=none;strokeWidth=3;strokeColor=#F5AF58;html=1;" parent="1" source="1355" target="1469" edge="1">
          <mxGeometry x="243.5" y="39" width="100" height="100" as="geometry">
            <mxPoint x="243.5" y="139" as="sourcePoint" />
            <mxPoint x="343.5" y="39" as="targetPoint" />
          </mxGeometry>
        </mxCell>
        <mxCell id="1482" value="" style="edgeStyle=none;endArrow=none;strokeWidth=3;strokeColor=#F5AF58;html=1;" parent="1" source="1355" target="1470" edge="1">
          <mxGeometry x="243.5" y="39" width="100" height="100" as="geometry">
            <mxPoint x="243.5" y="139" as="sourcePoint" />
            <mxPoint x="343.5" y="39" as="targetPoint" />
          </mxGeometry>
        </mxCell>
        <mxCell id="1483" value="" style="edgeStyle=none;endArrow=none;strokeWidth=3;strokeColor=#F5AF58;html=1;" parent="1" source="1355" target="1471" edge="1">
          <mxGeometry x="243.5" y="39" width="100" height="100" as="geometry">
            <mxPoint x="243.5" y="139" as="sourcePoint" />
            <mxPoint x="343.5" y="39" as="targetPoint" />
          </mxGeometry>
        </mxCell>
        <mxCell id="1484" value="" style="edgeStyle=none;endArrow=none;strokeWidth=3;strokeColor=#F5AF58;html=1;" parent="1" source="1355" target="1472" edge="1">
          <mxGeometry x="243.5" y="39" width="100" height="100" as="geometry">
            <mxPoint x="243.5" y="139" as="sourcePoint" />
            <mxPoint x="343.5" y="39" as="targetPoint" />
          </mxGeometry>
        </mxCell>
        <mxCell id="1485" value="" style="edgeStyle=none;endArrow=none;strokeWidth=3;strokeColor=#F5AF58;html=1;" parent="1" source="1355" target="1473" edge="1">
          <mxGeometry x="243.5" y="39" width="100" height="100" as="geometry">
            <mxPoint x="243.5" y="139" as="sourcePoint" />
            <mxPoint x="343.5" y="39" as="targetPoint" />
          </mxGeometry>
        </mxCell>
        <mxCell id="1486" value="" style="edgeStyle=none;endArrow=none;strokeWidth=3;strokeColor=#F5AF58;html=1;" parent="1" source="1355" target="1474" edge="1">
          <mxGeometry x="243.5" y="39" width="100" height="100" as="geometry">
            <mxPoint x="243.5" y="139" as="sourcePoint" />
            <mxPoint x="343.5" y="39" as="targetPoint" />
          </mxGeometry>
        </mxCell>
        <mxCell id="1487" value="" style="edgeStyle=none;endArrow=none;strokeWidth=3;strokeColor=#F5AF58;html=1;" parent="1" source="1355" target="1475" edge="1">
          <mxGeometry x="243.5" y="39" width="100" height="100" as="geometry">
            <mxPoint x="243.5" y="139" as="sourcePoint" />
            <mxPoint x="343.5" y="39" as="targetPoint" />
          </mxGeometry>
        </mxCell>
        <mxCell id="1488" value="" style="edgeStyle=none;endArrow=none;strokeWidth=3;strokeColor=#F5AF58;html=1;startArrow=none;" parent="1" source="kbZLWcOoWII1aOp1QAB2-1650" target="1476" edge="1">
          <mxGeometry x="243.5" y="39" width="100" height="100" as="geometry">
            <mxPoint x="243.5" y="139" as="sourcePoint" />
            <mxPoint x="343.5" y="39" as="targetPoint" />
          </mxGeometry>
        </mxCell>
        <mxCell id="1514" style="edgeStyle=orthogonalEdgeStyle;rounded=0;html=1;exitX=0.75;exitY=0;entryX=0.75;entryY=0;startArrow=none;startFill=0;endArrow=block;endFill=1;jettySize=auto;orthogonalLoop=1;strokeColor=#12aab5;strokeWidth=6;fontSize=20;fontColor=#2F5B7C;" parent="1" source="1414" target="1414" edge="1">
          <mxGeometry relative="1" as="geometry" />
        </mxCell>
        <mxCell id="kbZLWcOoWII1aOp1QAB2-1631" value="" style="edgeStyle=orthogonalEdgeStyle;rounded=0;orthogonalLoop=1;jettySize=auto;html=1;" edge="1" parent="1" source="1515" target="kbZLWcOoWII1aOp1QAB2-1630">
          <mxGeometry relative="1" as="geometry">
            <Array as="points">
              <mxPoint x="1390" y="880" />
            </Array>
          </mxGeometry>
        </mxCell>
        <mxCell id="1515" value="Семён&lt;br&gt;11.08.2016" style="ellipse;whiteSpace=wrap;html=1;shadow=0;fontFamily=Helvetica;fontSize=30;fontColor=#2F5B7C;align=center;strokeColor=#2F5B7C;strokeWidth=6;fillColor=#FFFFFF;fontStyle=1;gradientColor=none;" parent="1" vertex="1">
          <mxGeometry x="961" y="676.5" width="270" height="270" as="geometry" />
        </mxCell>
        <mxCell id="1516" value="Свободное время" style="ellipse;whiteSpace=wrap;html=1;shadow=0;fontFamily=Helvetica;fontSize=20;fontColor=#FFFFFF;align=center;strokeWidth=3;fillColor=#736ca8;strokeColor=none;" parent="1" vertex="1">
          <mxGeometry x="312" y="721.5" width="120" height="120" as="geometry" />
        </mxCell>
        <mxCell id="1517" value="Роботы-трансформеры" style="rounded=1;fillColor=#a29dc5;strokeColor=none;strokeWidth=3;shadow=0;html=1;fontColor=#FFFFFF;" parent="1" vertex="1">
          <mxGeometry x="40" y="610" width="162" height="40" as="geometry" />
        </mxCell>
        <mxCell id="1518" value="Машины" style="rounded=1;fillColor=#a29dc5;strokeColor=none;strokeWidth=3;shadow=0;html=1;fontColor=#FFFFFF;" parent="1" vertex="1">
          <mxGeometry x="100" y="566.75" width="120" height="40" as="geometry" />
        </mxCell>
        <mxCell id="1519" value="Конструкторы: лего, магнитн" style="rounded=1;fillColor=#a29dc5;strokeColor=none;strokeWidth=3;shadow=0;html=1;fontColor=#FFFFFF;" parent="1" vertex="1">
          <mxGeometry x="190" y="520" width="200.5" height="40" as="geometry" />
        </mxCell>
        <mxCell id="1520" value="Xbox" style="rounded=1;fillColor=#a29dc5;strokeColor=none;strokeWidth=3;shadow=0;html=1;fontColor=#FFFFFF;" parent="1" vertex="1">
          <mxGeometry x="460" y="561.5" width="120" height="40" as="geometry" />
        </mxCell>
        <mxCell id="1521" value="Мультики" style="rounded=1;fillColor=#a29dc5;strokeColor=none;strokeWidth=3;shadow=0;html=1;fontColor=#FFFFFF;" parent="1" vertex="1">
          <mxGeometry x="518.5" y="620" width="151.5" height="40" as="geometry" />
        </mxCell>
        <mxCell id="1522" value="Герои: супергерои,&amp;nbsp;&lt;br&gt;динозавры, знакомые из мультов&amp;nbsp;" style="rounded=1;fillColor=#a29dc5;strokeColor=none;strokeWidth=3;shadow=0;html=1;fontColor=#FFFFFF;" parent="1" vertex="1">
          <mxGeometry x="-10" y="660" width="200" height="56.5" as="geometry" />
        </mxCell>
        <mxCell id="1526" value="Книги (перед сном ) обязательно" style="rounded=1;fillColor=#a29dc5;strokeColor=none;strokeWidth=3;shadow=0;html=1;fontColor=#FFFFFF;" parent="1" vertex="1">
          <mxGeometry x="181.5" y="946.5" width="242" height="40" as="geometry" />
        </mxCell>
        <mxCell id="1527" value="Совместное с родителем - &lt;br&gt;лепка, творчество, эксперименты" style="rounded=1;fillColor=#a29dc5;strokeColor=none;strokeWidth=3;shadow=0;html=1;fontColor=#FFFFFF;" parent="1" vertex="1">
          <mxGeometry x="-50" y="770" width="240" height="40" as="geometry" />
        </mxCell>
        <mxCell id="1528" value="" style="edgeStyle=none;endArrow=none;strokeWidth=3;strokeColor=#A29DC5;html=1;" parent="1" source="1516" target="1517" edge="1">
          <mxGeometry x="-1498" y="-303.5" width="100" height="100" as="geometry">
            <mxPoint x="-1498" y="-203.5" as="sourcePoint" />
            <mxPoint x="-1398" y="-303.5" as="targetPoint" />
          </mxGeometry>
        </mxCell>
        <mxCell id="1530" value="" style="edgeStyle=none;endArrow=none;strokeWidth=3;strokeColor=#A29DC5;html=1;" parent="1" source="1516" target="1518" edge="1">
          <mxGeometry x="-1498" y="-303.5" width="100" height="100" as="geometry">
            <mxPoint x="-1498" y="-203.5" as="sourcePoint" />
            <mxPoint x="-1398" y="-303.5" as="targetPoint" />
          </mxGeometry>
        </mxCell>
        <mxCell id="1531" value="" style="edgeStyle=none;endArrow=none;strokeWidth=3;strokeColor=#A29DC5;html=1;" parent="1" source="1516" target="1519" edge="1">
          <mxGeometry x="-1498" y="-303.5" width="100" height="100" as="geometry">
            <mxPoint x="-1498" y="-203.5" as="sourcePoint" />
            <mxPoint x="-1398" y="-303.5" as="targetPoint" />
          </mxGeometry>
        </mxCell>
        <mxCell id="1532" value="" style="edgeStyle=none;endArrow=none;strokeWidth=3;strokeColor=#A29DC5;html=1;" parent="1" source="1516" target="1520" edge="1">
          <mxGeometry x="-1498" y="-303.5" width="100" height="100" as="geometry">
            <mxPoint x="-1498" y="-203.5" as="sourcePoint" />
            <mxPoint x="-1398" y="-303.5" as="targetPoint" />
          </mxGeometry>
        </mxCell>
        <mxCell id="1533" value="" style="edgeStyle=none;endArrow=none;strokeWidth=3;strokeColor=#A29DC5;html=1;" parent="1" source="1516" target="1521" edge="1">
          <mxGeometry x="-1498" y="-303.5" width="100" height="100" as="geometry">
            <mxPoint x="-1498" y="-203.5" as="sourcePoint" />
            <mxPoint x="-1398" y="-303.5" as="targetPoint" />
          </mxGeometry>
        </mxCell>
        <mxCell id="1534" value="" style="edgeStyle=none;endArrow=none;strokeWidth=3;strokeColor=#A29DC5;html=1;" parent="1" source="1516" target="1522" edge="1">
          <mxGeometry x="-1498" y="-303.5" width="100" height="100" as="geometry">
            <mxPoint x="-1498" y="-203.5" as="sourcePoint" />
            <mxPoint x="-1398" y="-303.5" as="targetPoint" />
          </mxGeometry>
        </mxCell>
        <mxCell id="1538" value="" style="edgeStyle=none;endArrow=none;strokeWidth=3;strokeColor=#A29DC5;html=1;" parent="1" source="1516" target="1526" edge="1">
          <mxGeometry x="-1498" y="-303.5" width="100" height="100" as="geometry">
            <mxPoint x="-1498" y="-203.5" as="sourcePoint" />
            <mxPoint x="-1398" y="-303.5" as="targetPoint" />
          </mxGeometry>
        </mxCell>
        <mxCell id="1539" value="" style="edgeStyle=none;endArrow=none;strokeWidth=3;strokeColor=#A29DC5;html=1;" parent="1" source="1516" target="1527" edge="1">
          <mxGeometry x="-1498" y="-303.5" width="100" height="100" as="geometry">
            <mxPoint x="-1498" y="-203.5" as="sourcePoint" />
            <mxPoint x="-1398" y="-303.5" as="targetPoint" />
          </mxGeometry>
        </mxCell>
        <mxCell id="1541" value="" style="edgeStyle=none;endArrow=none;strokeWidth=3;strokeColor=#A29DC5;html=1;" parent="1" source="1354" target="1459" edge="1">
          <mxGeometry x="-1174" y="-408.5" width="100" height="100" as="geometry">
            <mxPoint x="-1174" y="-308.5" as="sourcePoint" />
            <mxPoint x="-1074" y="-408.5" as="targetPoint" />
          </mxGeometry>
        </mxCell>
        <mxCell id="1542" style="edgeStyle=none;rounded=0;html=1;exitX=0.5;exitY=1;endArrow=none;endFill=0;jettySize=auto;orthogonalLoop=1;strokeColor=#736CA8;strokeWidth=2;fillColor=#64bbe2;fontSize=20;fontColor=#23445D;" parent="1" edge="1">
          <mxGeometry relative="1" as="geometry">
            <mxPoint x="137.00000000000023" y="771.5" as="sourcePoint" />
            <mxPoint x="137.00000000000023" y="771.5" as="targetPoint" />
          </mxGeometry>
        </mxCell>
        <mxCell id="kbZLWcOoWII1aOp1QAB2-1543" value="" style="edgeStyle=none;endArrow=none;strokeWidth=3;strokeColor=#F5AF58;html=1;exitX=1;exitY=1;exitDx=0;exitDy=0;" edge="1" parent="1" source="1351">
          <mxGeometry x="13.5" y="31.5" width="100" height="100" as="geometry">
            <mxPoint x="1197.770360886654" y="366.3721202654783" as="sourcePoint" />
            <mxPoint x="1280" y="400" as="targetPoint" />
            <Array as="points" />
          </mxGeometry>
        </mxCell>
        <mxCell id="kbZLWcOoWII1aOp1QAB2-1544" value="Орф-музыка - скучно &lt;br&gt;(не давали инструменты)" style="rounded=1;fillColor=#f5af58;strokeColor=none;strokeWidth=3;shadow=0;html=1;fontColor=#FFFFFF;" vertex="1" parent="1">
          <mxGeometry x="1274.25" y="391.5" width="225.75" height="48.5" as="geometry" />
        </mxCell>
        <mxCell id="kbZLWcOoWII1aOp1QAB2-1545" value="Курсы по естествознанию (физ, хим, астро) +" style="rounded=1;fillColor=#f5af58;strokeColor=none;strokeWidth=3;shadow=0;html=1;fontColor=#FFFFFF;" vertex="1" parent="1">
          <mxGeometry x="783.5" y="201.5" width="310" height="40" as="geometry" />
        </mxCell>
        <mxCell id="kbZLWcOoWII1aOp1QAB2-1547" value="" style="edgeStyle=none;endArrow=none;strokeWidth=3;strokeColor=#F5AF58;html=1;startArrow=none;" edge="1" parent="1" source="1391" target="kbZLWcOoWII1aOp1QAB2-1545">
          <mxGeometry x="3.5" y="21.5" width="100" height="100" as="geometry">
            <mxPoint x="1115.0488144541373" y="266.10956881867446" as="sourcePoint" />
            <mxPoint x="971" y="161.5" as="targetPoint" />
          </mxGeometry>
        </mxCell>
        <mxCell id="1391" value="Монтессори-кулинария +" style="rounded=1;fillColor=#f5af58;strokeColor=none;strokeWidth=3;shadow=0;html=1;fontColor=#FFFFFF;" parent="1" vertex="1">
          <mxGeometry x="841.5" y="241.5" width="233.5" height="40" as="geometry" />
        </mxCell>
        <mxCell id="kbZLWcOoWII1aOp1QAB2-1548" value="" style="edgeStyle=none;endArrow=none;strokeWidth=3;strokeColor=#F5AF58;html=1;" edge="1" parent="1" source="1351" target="1391">
          <mxGeometry x="3.5" y="21.5" width="100" height="100" as="geometry">
            <mxPoint x="1106.9828363358538" y="281.3552683969381" as="sourcePoint" />
            <mxPoint x="994.75" y="241.5" as="targetPoint" />
          </mxGeometry>
        </mxCell>
        <mxCell id="kbZLWcOoWII1aOp1QAB2-1549" value="Кук. театр - не понр, тк обещали игрушки,&lt;br&gt;&amp;nbsp;а была болтовня; дома любит театр теней и тп" style="rounded=1;fillColor=#f5af58;strokeColor=none;strokeWidth=3;shadow=0;html=1;fontColor=#FFFFFF;" vertex="1" parent="1">
          <mxGeometry x="790" y="430" width="303.5" height="40" as="geometry" />
        </mxCell>
        <mxCell id="kbZLWcOoWII1aOp1QAB2-1550" value="" style="edgeStyle=none;endArrow=none;strokeWidth=3;strokeColor=#F5AF58;html=1;entryX=0.878;entryY=-0.05;entryDx=0;entryDy=0;entryPerimeter=0;" edge="1" parent="1" source="1351" target="kbZLWcOoWII1aOp1QAB2-1549">
          <mxGeometry x="13.5" y="31.5" width="100" height="100" as="geometry">
            <mxPoint x="1120.097398108483" y="338.8525521883382" as="sourcePoint" />
            <mxPoint x="1036.8055555555557" y="381.5" as="targetPoint" />
          </mxGeometry>
        </mxCell>
        <mxCell id="kbZLWcOoWII1aOp1QAB2-1551" value="Языков кружки и занятия:&lt;br&gt;Онлайн брит школа -&lt;br&gt;Англ для билингвов +&lt;br&gt;Испанский с носителем +&lt;br&gt;Англ с носителем дома ++&amp;nbsp;" style="rounded=1;fillColor=#f5af58;strokeColor=none;strokeWidth=3;shadow=0;html=1;fontColor=#FFFFFF;" vertex="1" parent="1">
          <mxGeometry x="1185.25" y="454" width="204.75" height="96" as="geometry" />
        </mxCell>
        <mxCell id="kbZLWcOoWII1aOp1QAB2-1552" value="" style="edgeStyle=none;endArrow=none;strokeWidth=3;strokeColor=#F5AF58;html=1;" edge="1" parent="1" source="1351" target="kbZLWcOoWII1aOp1QAB2-1551">
          <mxGeometry x="23.5" y="41.5" width="100" height="100" as="geometry">
            <mxPoint x="1138.4417164492952" y="360.19206048709043" as="sourcePoint" />
            <mxPoint x="1082.9430000000002" y="437.9999999999998" as="targetPoint" />
          </mxGeometry>
        </mxCell>
        <mxCell id="kbZLWcOoWII1aOp1QAB2-1553" value="Бассейн, с тренером - нет,&lt;br&gt;&amp;nbsp;с родителем - да" style="rounded=1;fillColor=#f5af58;strokeColor=none;strokeWidth=3;shadow=0;html=1;fontColor=#FFFFFF;" vertex="1" parent="1">
          <mxGeometry x="944.25" y="490" width="168.5" height="40" as="geometry" />
        </mxCell>
        <mxCell id="kbZLWcOoWII1aOp1QAB2-1554" value="" style="edgeStyle=none;endArrow=none;strokeWidth=3;strokeColor=#F5AF58;html=1;" edge="1" parent="1" source="1351">
          <mxGeometry x="23.5" y="41.5" width="100" height="100" as="geometry">
            <mxPoint x="1148.440857096275" y="361.47208796583664" as="sourcePoint" />
            <mxPoint x="1090" y="500" as="targetPoint" />
          </mxGeometry>
        </mxCell>
        <mxCell id="kbZLWcOoWII1aOp1QAB2-1557" value="" style="edgeStyle=none;endArrow=none;strokeWidth=3;strokeColor=#64BBE2;html=1;entryX=1;entryY=0.5;entryDx=0;entryDy=0;exitX=0;exitY=0.75;exitDx=0;exitDy=0;" edge="1" parent="1" source="1435" target="kbZLWcOoWII1aOp1QAB2-1560">
          <mxGeometry x="-14" y="206.5" width="100" height="100" as="geometry">
            <mxPoint x="1780" y="787" as="sourcePoint" />
            <mxPoint x="1660" y="787" as="targetPoint" />
          </mxGeometry>
        </mxCell>
        <mxCell id="kbZLWcOoWII1aOp1QAB2-1558" value="" style="edgeStyle=none;endArrow=none;strokeWidth=3;strokeColor=#64BBE2;html=1;entryX=0.976;entryY=0.66;entryDx=0;entryDy=0;entryPerimeter=0;exitX=0.008;exitY=0.416;exitDx=0;exitDy=0;exitPerimeter=0;" edge="1" parent="1" source="1435" target="kbZLWcOoWII1aOp1QAB2-1562">
          <mxGeometry x="-4" y="216.5" width="100" height="100" as="geometry">
            <mxPoint x="1730" y="770" as="sourcePoint" />
            <mxPoint x="1680" y="740" as="targetPoint" />
          </mxGeometry>
        </mxCell>
        <mxCell id="kbZLWcOoWII1aOp1QAB2-1559" value="" style="edgeStyle=none;endArrow=none;strokeWidth=3;strokeColor=#64BBE2;html=1;" edge="1" parent="1" source="1435" target="kbZLWcOoWII1aOp1QAB2-1563">
          <mxGeometry x="6" y="226.5" width="100" height="100" as="geometry">
            <mxPoint x="1800" y="780" as="sourcePoint" />
            <mxPoint x="1710" y="720" as="targetPoint" />
          </mxGeometry>
        </mxCell>
        <mxCell id="kbZLWcOoWII1aOp1QAB2-1560" value="русс &amp;nbsp;(родной)" style="ellipse;whiteSpace=wrap;html=1;rounded=1;shadow=0;fontColor=#FFFFFF;strokeColor=none;strokeWidth=3;fillColor=#64BBE2;" vertex="1" parent="1">
          <mxGeometry x="1440.5" y="751.5" width="121" height="60" as="geometry" />
        </mxCell>
        <mxCell id="kbZLWcOoWII1aOp1QAB2-1562" value="англ (билингв понимание)" style="ellipse;whiteSpace=wrap;html=1;rounded=1;shadow=0;fontColor=#FFFFFF;strokeColor=none;strokeWidth=3;fillColor=#64BBE2;" vertex="1" parent="1">
          <mxGeometry x="1448" y="680" width="120" height="60" as="geometry" />
        </mxCell>
        <mxCell id="kbZLWcOoWII1aOp1QAB2-1563" value="испанский - нач" style="ellipse;whiteSpace=wrap;html=1;rounded=1;shadow=0;fontColor=#FFFFFF;strokeColor=none;strokeWidth=3;fillColor=#64BBE2;" vertex="1" parent="1">
          <mxGeometry x="1480" y="606.75" width="120" height="60" as="geometry" />
        </mxCell>
        <mxCell id="kbZLWcOoWII1aOp1QAB2-1564" value="" style="edgeStyle=none;endArrow=none;strokeWidth=3;strokeColor=#F08E81;html=1;" edge="1" parent="1" source="1352" target="kbZLWcOoWII1aOp1QAB2-1565">
          <mxGeometry x="41" y="116.5" width="100" height="100" as="geometry">
            <mxPoint x="1732.4379264149647" y="385.51500688115175" as="sourcePoint" />
            <mxPoint x="1620" y="386" as="targetPoint" />
          </mxGeometry>
        </mxCell>
        <mxCell id="kbZLWcOoWII1aOp1QAB2-1566" value="" style="edgeStyle=none;endArrow=none;strokeWidth=3;strokeColor=#64BBE2;html=1;" edge="1" parent="1" source="1353">
          <mxGeometry x="-14" y="206.5" width="100" height="100" as="geometry">
            <mxPoint x="1972.2987787923857" y="826.8590120050014" as="sourcePoint" />
            <mxPoint x="1980" y="730" as="targetPoint" />
          </mxGeometry>
        </mxCell>
        <mxCell id="kbZLWcOoWII1aOp1QAB2-1567" value="любит ИГРАТЬ&lt;br&gt;&amp;nbsp;(как деятельность)" style="rounded=1;fillColor=#64BBE2;strokeColor=none;strokeWidth=3;shadow=0;html=1;fontColor=#FFFFFF;" vertex="1" parent="1">
          <mxGeometry x="1907" y="690" width="140" height="43.5" as="geometry" />
        </mxCell>
        <mxCell id="kbZLWcOoWII1aOp1QAB2-1568" value="" style="edgeStyle=none;endArrow=none;strokeWidth=3;strokeColor=#A29DC5;html=1;entryX=0.75;entryY=0;entryDx=0;entryDy=0;" edge="1" parent="1" source="1516" target="kbZLWcOoWII1aOp1QAB2-1569">
          <mxGeometry x="-1488" y="-293.5" width="100" height="100" as="geometry">
            <mxPoint x="326.3620820728479" y="813.959343016465" as="sourcePoint" />
            <mxPoint x="200" y="870" as="targetPoint" />
          </mxGeometry>
        </mxCell>
        <mxCell id="kbZLWcOoWII1aOp1QAB2-1569" value="Любит настольные игры особенно с родителями" style="rounded=1;fillColor=#a29dc5;strokeColor=none;strokeWidth=3;shadow=0;html=1;fontColor=#FFFFFF;" vertex="1" parent="1">
          <mxGeometry x="-50" y="870" width="292" height="40" as="geometry" />
        </mxCell>
        <mxCell id="kbZLWcOoWII1aOp1QAB2-1570" value="" style="edgeStyle=none;endArrow=none;strokeWidth=3;strokeColor=#A29DC5;html=1;entryX=0.5;entryY=0;entryDx=0;entryDy=0;" edge="1" parent="1" source="1516" target="kbZLWcOoWII1aOp1QAB2-1571">
          <mxGeometry x="-1478" y="-283.5" width="100" height="100" as="geometry">
            <mxPoint x="326.13230495403513" y="813.3815138930029" as="sourcePoint" />
            <mxPoint x="570" y="870" as="targetPoint" />
          </mxGeometry>
        </mxCell>
        <mxCell id="kbZLWcOoWII1aOp1QAB2-1571" value="Гулять" style="rounded=1;fillColor=#a29dc5;strokeColor=none;strokeWidth=3;shadow=0;html=1;fontColor=#FFFFFF;" vertex="1" parent="1">
          <mxGeometry x="337" y="900" width="151.5" height="40" as="geometry" />
        </mxCell>
        <mxCell id="kbZLWcOoWII1aOp1QAB2-1572" value="&quot;Сова&quot;" style="rounded=1;fillColor=#f08e81;strokeColor=none;strokeWidth=3;shadow=0;html=1;fontColor=#FFFFFF;" vertex="1" parent="1">
          <mxGeometry x="1540" y="414" width="120" height="40" as="geometry" />
        </mxCell>
        <mxCell id="kbZLWcOoWII1aOp1QAB2-1573" value="" style="edgeStyle=none;endArrow=none;strokeWidth=3;strokeColor=#F08E81;html=1;entryX=1;entryY=0.25;entryDx=0;entryDy=0;exitX=0;exitY=0.5;exitDx=0;exitDy=0;" edge="1" parent="1" source="1352" target="kbZLWcOoWII1aOp1QAB2-1572">
          <mxGeometry x="51" y="126.5" width="100" height="100" as="geometry">
            <mxPoint x="1713.3453890317078" y="412.0335104434455" as="sourcePoint" />
            <mxPoint x="1630" y="396" as="targetPoint" />
          </mxGeometry>
        </mxCell>
        <mxCell id="kbZLWcOoWII1aOp1QAB2-1574" value="Счастливый ребенок" style="rounded=1;fillColor=#f08e81;strokeColor=none;strokeWidth=3;shadow=0;html=1;fontColor=#FFFFFF;" vertex="1" parent="1">
          <mxGeometry x="1568" y="101.5" width="182" height="40" as="geometry" />
        </mxCell>
        <mxCell id="kbZLWcOoWII1aOp1QAB2-1575" value="" style="edgeStyle=none;endArrow=none;strokeWidth=3;strokeColor=#F08E81;html=1;entryX=0.5;entryY=0;entryDx=0;entryDy=0;exitX=0.358;exitY=0.013;exitDx=0;exitDy=0;exitPerimeter=0;" edge="1" parent="1" source="1352" target="kbZLWcOoWII1aOp1QAB2-1574">
          <mxGeometry x="41" y="116.5" width="100" height="100" as="geometry">
            <mxPoint x="1814.781490571525" y="483.6329189918238" as="sourcePoint" />
            <mxPoint x="1847.9006514657985" y="560" as="targetPoint" />
          </mxGeometry>
        </mxCell>
        <mxCell id="kbZLWcOoWII1aOp1QAB2-1565" value="Любит персональное внимание" style="rounded=1;fillColor=#f08e81;strokeColor=none;strokeWidth=3;shadow=0;html=1;fontColor=#FFFFFF;" vertex="1" parent="1">
          <mxGeometry x="2140" y="391.5" width="209" height="40" as="geometry" />
        </mxCell>
        <mxCell id="kbZLWcOoWII1aOp1QAB2-1576" value="" style="edgeStyle=none;endArrow=none;strokeWidth=3;strokeColor=#F08E81;html=1;" edge="1" parent="1" source="1352" target="kbZLWcOoWII1aOp1QAB2-1565">
          <mxGeometry x="31" y="106.5" width="100" height="100" as="geometry">
            <mxPoint x="1858.8431422400909" y="426.6985155578818" as="sourcePoint" />
            <mxPoint x="2063.543478260869" y="454" as="targetPoint" />
          </mxGeometry>
        </mxCell>
        <mxCell id="kbZLWcOoWII1aOp1QAB2-1577" value="" style="edgeStyle=none;endArrow=none;strokeWidth=3;strokeColor=#A29DC5;html=1;" edge="1" parent="1" source="1516" target="kbZLWcOoWII1aOp1QAB2-1578">
          <mxGeometry x="-1468" y="-273.5" width="100" height="100" as="geometry">
            <mxPoint x="424.42640687119274" y="833.9264068711927" as="sourcePoint" />
            <mxPoint x="560" y="880" as="targetPoint" />
          </mxGeometry>
        </mxCell>
        <mxCell id="kbZLWcOoWII1aOp1QAB2-1578" value="Спектакли, шоу" style="rounded=1;fillColor=#a29dc5;strokeColor=none;strokeWidth=3;shadow=0;html=1;fontColor=#FFFFFF;" vertex="1" parent="1">
          <mxGeometry x="691" y="740" width="151.5" height="40" as="geometry" />
        </mxCell>
        <mxCell id="kbZLWcOoWII1aOp1QAB2-1580" value="" style="edgeStyle=none;endArrow=none;strokeWidth=3;strokeColor=#F5AF58;html=1;" edge="1" parent="1" source="1355">
          <mxGeometry x="253.5" y="49" width="100" height="100" as="geometry">
            <mxPoint x="1179.6916469134885" y="1352.454545810654" as="sourcePoint" />
            <mxPoint x="742.3763779527558" y="1120.0000000000002" as="targetPoint" />
          </mxGeometry>
        </mxCell>
        <mxCell id="kbZLWcOoWII1aOp1QAB2-1581" value="Воображать себя героем истории" style="rounded=1;fillColor=#f5af58;strokeColor=none;strokeWidth=3;shadow=0;html=1;fontColor=#FFFFFF;" vertex="1" parent="1">
          <mxGeometry x="1058.25" y="1430" width="210.5" height="40" as="geometry" />
        </mxCell>
        <mxCell id="kbZLWcOoWII1aOp1QAB2-1582" value="" style="edgeStyle=none;endArrow=none;strokeWidth=3;strokeColor=#F5AF58;html=1;entryX=0;entryY=0.75;entryDx=0;entryDy=0;exitX=1;exitY=1;exitDx=0;exitDy=0;" edge="1" parent="1" source="1355" target="kbZLWcOoWII1aOp1QAB2-1581">
          <mxGeometry x="253.5" y="49" width="100" height="100" as="geometry">
            <mxPoint x="1280" y="1360" as="sourcePoint" />
            <mxPoint x="1436.8070175438597" y="1256.5" as="targetPoint" />
          </mxGeometry>
        </mxCell>
        <mxCell id="kbZLWcOoWII1aOp1QAB2-1583" value="" style="edgeStyle=none;endArrow=none;strokeWidth=3;strokeColor=#64BBE2;html=1;exitX=1;exitY=1;exitDx=0;exitDy=0;entryX=0.205;entryY=0.03;entryDx=0;entryDy=0;entryPerimeter=0;" edge="1" parent="1" source="1353" target="kbZLWcOoWII1aOp1QAB2-1584">
          <mxGeometry x="-14" y="206.5" width="100" height="100" as="geometry">
            <mxPoint x="2060.9128576386656" y="900.6780492588159" as="sourcePoint" />
            <mxPoint x="2100" y="1050" as="targetPoint" />
          </mxGeometry>
        </mxCell>
        <mxCell id="kbZLWcOoWII1aOp1QAB2-1584" value="Письмо не умеет, любит лабиринты" style="rounded=1;fillColor=#64BBE2;strokeColor=none;strokeWidth=3;shadow=0;html=1;fontColor=#FFFFFF;" vertex="1" parent="1">
          <mxGeometry x="2095.5" y="1029.75" width="214.5" height="40.25" as="geometry" />
        </mxCell>
        <mxCell id="kbZLWcOoWII1aOp1QAB2-1586" value="" style="edgeStyle=none;endArrow=none;strokeWidth=3;strokeColor=#F08E81;html=1;" edge="1" parent="1" source="1352" target="kbZLWcOoWII1aOp1QAB2-1587">
          <mxGeometry x="41" y="116.5" width="100" height="100" as="geometry">
            <mxPoint x="1732.6242516376992" y="385.3651705854729" as="sourcePoint" />
            <mxPoint x="1620" y="360" as="targetPoint" />
          </mxGeometry>
        </mxCell>
        <mxCell id="kbZLWcOoWII1aOp1QAB2-1587" value="Обидчивый, отходчивый" style="rounded=1;fillColor=#f08e81;strokeColor=none;strokeWidth=3;shadow=0;html=1;fontColor=#FFFFFF;" vertex="1" parent="1">
          <mxGeometry x="1510" y="340" width="180" height="21.5" as="geometry" />
        </mxCell>
        <mxCell id="kbZLWcOoWII1aOp1QAB2-1588" value="Эмоциональный" style="rounded=1;fillColor=#f08e81;strokeColor=none;strokeWidth=3;shadow=0;html=1;fontColor=#FFFFFF;" vertex="1" parent="1">
          <mxGeometry x="1510" y="363.5" width="140" height="20" as="geometry" />
        </mxCell>
        <mxCell id="kbZLWcOoWII1aOp1QAB2-1589" value="" style="edgeStyle=none;endArrow=none;strokeWidth=3;strokeColor=#F08E81;html=1;" edge="1" parent="1" source="1352" target="kbZLWcOoWII1aOp1QAB2-1588">
          <mxGeometry x="51" y="126.5" width="100" height="100" as="geometry">
            <mxPoint x="1700" y="400" as="sourcePoint" />
            <mxPoint x="1658.1333333333332" y="371.5" as="targetPoint" />
          </mxGeometry>
        </mxCell>
        <mxCell id="kbZLWcOoWII1aOp1QAB2-1590" value="" style="edgeStyle=none;endArrow=none;strokeWidth=3;strokeColor=#F08E81;html=1;" edge="1" parent="1" source="1352">
          <mxGeometry x="61" y="136.5" width="100" height="100" as="geometry">
            <mxPoint x="1710.999999999986" y="426.5" as="sourcePoint" />
            <mxPoint x="1690" y="500" as="targetPoint" />
            <Array as="points">
              <mxPoint x="1710" y="480" />
            </Array>
          </mxGeometry>
        </mxCell>
        <mxCell id="kbZLWcOoWII1aOp1QAB2-1591" value="Упрямый, настойчивый" style="rounded=1;fillColor=#f08e81;strokeColor=none;strokeWidth=3;shadow=0;html=1;fontColor=#FFFFFF;" vertex="1" parent="1">
          <mxGeometry x="1600" y="500" width="140" height="40" as="geometry" />
        </mxCell>
        <mxCell id="kbZLWcOoWII1aOp1QAB2-1592" value="За справедливость, &lt;br&gt;честность, поровну" style="rounded=1;fillColor=#f08e81;strokeColor=none;strokeWidth=3;shadow=0;html=1;fontColor=#FFFFFF;" vertex="1" parent="1">
          <mxGeometry x="1751" y="500" width="140" height="40" as="geometry" />
        </mxCell>
        <mxCell id="kbZLWcOoWII1aOp1QAB2-1593" value="" style="edgeStyle=none;endArrow=none;strokeWidth=3;strokeColor=#F08E81;html=1;" edge="1" parent="1" source="1352" target="kbZLWcOoWII1aOp1QAB2-1592">
          <mxGeometry x="71" y="146.5" width="100" height="100" as="geometry">
            <mxPoint x="1739.3606392551937" y="472.4387477877067" as="sourcePoint" />
            <mxPoint x="1700" y="509.9999999999998" as="targetPoint" />
            <Array as="points" />
          </mxGeometry>
        </mxCell>
        <mxCell id="kbZLWcOoWII1aOp1QAB2-1594" value="" style="edgeStyle=none;endArrow=none;strokeWidth=3;strokeColor=#A29DC5;html=1;entryX=0;entryY=0.5;entryDx=0;entryDy=0;" edge="1" parent="1" source="1354" target="kbZLWcOoWII1aOp1QAB2-1595">
          <mxGeometry x="261" y="-93.5" width="100" height="100" as="geometry">
            <mxPoint x="1838.5086713999717" y="1258.6100179371817" as="sourcePoint" />
            <mxPoint x="1950" y="1250" as="targetPoint" />
            <Array as="points" />
          </mxGeometry>
        </mxCell>
        <mxCell id="kbZLWcOoWII1aOp1QAB2-1595" value="Динозавры" style="rounded=1;fillColor=#a29dc5;strokeColor=none;strokeWidth=3;shadow=0;html=1;fontColor=#FFFFFF;" vertex="1" parent="1">
          <mxGeometry x="1990" y="1143" width="150" height="36" as="geometry" />
        </mxCell>
        <mxCell id="kbZLWcOoWII1aOp1QAB2-1596" value="" style="edgeStyle=none;endArrow=none;strokeWidth=3;strokeColor=#F5AF58;html=1;" edge="1" parent="1" source="1355" target="kbZLWcOoWII1aOp1QAB2-1597">
          <mxGeometry x="253.5" y="49" width="100" height="100" as="geometry">
            <mxPoint x="1280" y="1349" as="sourcePoint" />
            <mxPoint x="1450" y="1290" as="targetPoint" />
          </mxGeometry>
        </mxCell>
        <mxCell id="kbZLWcOoWII1aOp1QAB2-1597" value="Строить, собирать, складывать, создавать&lt;br&gt;Играть в то что&lt;br&gt;&amp;nbsp;слепил/нарисовал/раскр/сложил&lt;br&gt;&amp;nbsp;как в отедьную игрушку" style="rounded=1;fillColor=#f5af58;strokeColor=none;strokeWidth=3;shadow=0;html=1;fontColor=#FFFFFF;" vertex="1" parent="1">
          <mxGeometry x="1040" y="1330" width="270" height="80" as="geometry" />
        </mxCell>
        <mxCell id="kbZLWcOoWII1aOp1QAB2-1598" value="Сладенькое, мороженое" style="rounded=1;fillColor=#f5af58;strokeColor=none;strokeWidth=3;shadow=0;html=1;fontColor=#FFFFFF;" vertex="1" parent="1">
          <mxGeometry x="450.5" y="1198.5" width="189.5" height="19" as="geometry" />
        </mxCell>
        <mxCell id="kbZLWcOoWII1aOp1QAB2-1599" value="" style="edgeStyle=none;endArrow=none;strokeWidth=3;strokeColor=#F5AF58;html=1;entryX=1;entryY=0.75;entryDx=0;entryDy=0;" edge="1" parent="1" source="1355" target="kbZLWcOoWII1aOp1QAB2-1598">
          <mxGeometry x="253.5" y="49" width="100" height="100" as="geometry">
            <mxPoint x="1173.662599204908" y="1374.5857655151162" as="sourcePoint" />
            <mxPoint x="1089.4999999999995" y="1367.2387434554971" as="targetPoint" />
          </mxGeometry>
        </mxCell>
        <mxCell id="kbZLWcOoWII1aOp1QAB2-1600" value="Не умеет проигрывать (очень эмоционирует), &lt;br&gt;любит быть первым, самым .." style="rounded=1;fillColor=#f08e81;strokeColor=none;strokeWidth=3;shadow=0;html=1;fontColor=#FFFFFF;" vertex="1" parent="1">
          <mxGeometry x="2110" y="490" width="308.5" height="46.5" as="geometry" />
        </mxCell>
        <mxCell id="kbZLWcOoWII1aOp1QAB2-1601" value="" style="edgeStyle=none;endArrow=none;strokeWidth=3;strokeColor=#F08E81;html=1;entryX=0;entryY=0.25;entryDx=0;entryDy=0;" edge="1" parent="1" source="1352" target="kbZLWcOoWII1aOp1QAB2-1600">
          <mxGeometry x="41" y="116.5" width="100" height="100" as="geometry">
            <mxPoint x="1838.3913490200093" y="378.60865097999" as="sourcePoint" />
            <mxPoint x="2040" y="140" as="targetPoint" />
          </mxGeometry>
        </mxCell>
        <mxCell id="kbZLWcOoWII1aOp1QAB2-1602" value="Если что-то не получилось или &lt;br&gt;не понравилось с 1 раза, &lt;br&gt;очень сложно уговорить попробовать еще раз &lt;br&gt;в том же месте с тем же педагогом; &lt;br&gt;Если занятие не первое и что-то пошло не так - это не препятствие, &lt;br&gt;не проблема&amp;nbsp;в след раз пробует еще" style="rounded=1;fillColor=#f08e81;strokeColor=none;strokeWidth=3;shadow=0;html=1;fontColor=#FFFFFF;" vertex="1" parent="1">
          <mxGeometry x="2110" y="150" width="400" height="100" as="geometry" />
        </mxCell>
        <mxCell id="kbZLWcOoWII1aOp1QAB2-1603" value="" style="edgeStyle=none;endArrow=none;strokeWidth=3;strokeColor=#F08E81;html=1;" edge="1" parent="1" target="kbZLWcOoWII1aOp1QAB2-1602">
          <mxGeometry x="51" y="126.5" width="100" height="100" as="geometry">
            <mxPoint x="1848.3913490200093" y="388.6086509799901" as="sourcePoint" />
            <mxPoint x="2132.875" y="156.5" as="targetPoint" />
          </mxGeometry>
        </mxCell>
        <mxCell id="kbZLWcOoWII1aOp1QAB2-1604" value="Новое (даже если не пробовал)&lt;br&gt;начинает с фразы &quot;у меня не получится&quot;, &lt;br&gt;&quot;мне не нравится&quot; и тп" style="rounded=1;fillColor=#f08e81;strokeColor=none;strokeWidth=3;shadow=0;html=1;fontColor=#FFFFFF;" vertex="1" parent="1">
          <mxGeometry x="1970" y="259" width="260" height="51.5" as="geometry" />
        </mxCell>
        <mxCell id="kbZLWcOoWII1aOp1QAB2-1605" value="Рисование, раскраски, &lt;br&gt;особенно водные" style="rounded=1;fillColor=#a29dc5;strokeColor=none;strokeWidth=3;shadow=0;html=1;fontColor=#FFFFFF;" vertex="1" parent="1">
          <mxGeometry x="-50" y="723.5" width="240" height="36.5" as="geometry" />
        </mxCell>
        <mxCell id="kbZLWcOoWII1aOp1QAB2-1606" value="" style="edgeStyle=none;endArrow=none;strokeWidth=3;strokeColor=#A29DC5;html=1;entryX=1;entryY=0.5;entryDx=0;entryDy=0;exitX=0.022;exitY=0.425;exitDx=0;exitDy=0;exitPerimeter=0;" edge="1" parent="1" source="1516" target="kbZLWcOoWII1aOp1QAB2-1605">
          <mxGeometry x="-1488" y="-293.5" width="100" height="100" as="geometry">
            <mxPoint x="310" y="780" as="sourcePoint" />
            <mxPoint x="185.43163538873978" y="726.5" as="targetPoint" />
          </mxGeometry>
        </mxCell>
        <mxCell id="kbZLWcOoWII1aOp1QAB2-1607" value="Позвонить другу/родственнику, &lt;br&gt;поболтать по телефону" style="rounded=1;fillColor=#a29dc5;strokeColor=none;strokeWidth=3;shadow=0;html=1;fontColor=#FFFFFF;" vertex="1" parent="1">
          <mxGeometry x="700.25" y="806.5" width="198" height="45" as="geometry" />
        </mxCell>
        <mxCell id="kbZLWcOoWII1aOp1QAB2-1608" value="" style="edgeStyle=none;endArrow=none;strokeWidth=3;strokeColor=#A29DC5;html=1;entryX=0;entryY=0;entryDx=0;entryDy=0;" edge="1" parent="1" source="1516" target="kbZLWcOoWII1aOp1QAB2-1607">
          <mxGeometry x="-1458" y="-263.5" width="100" height="100" as="geometry">
            <mxPoint x="441.4372677546121" y="799.6982438282223" as="sourcePoint" />
            <mxPoint x="655.625" y="830" as="targetPoint" />
          </mxGeometry>
        </mxCell>
        <mxCell id="kbZLWcOoWII1aOp1QAB2-1609" value="" style="edgeStyle=none;endArrow=none;strokeWidth=3;strokeColor=#A29DC5;html=1;" edge="1" parent="1" source="1516" target="kbZLWcOoWII1aOp1QAB2-1610">
          <mxGeometry x="-1468" y="-273.5" width="100" height="100" as="geometry">
            <mxPoint x="433.5148619295346" y="822.2606729507295" as="sourcePoint" />
            <mxPoint x="610" y="870" as="targetPoint" />
          </mxGeometry>
        </mxCell>
        <mxCell id="kbZLWcOoWII1aOp1QAB2-1610" value="Игры с сестрой (младшей)" style="rounded=1;fillColor=#a29dc5;strokeColor=none;strokeWidth=3;shadow=0;html=1;fontColor=#FFFFFF;" vertex="1" parent="1">
          <mxGeometry x="660.87" y="668.25" width="169.75" height="40" as="geometry" />
        </mxCell>
        <mxCell id="kbZLWcOoWII1aOp1QAB2-1611" value="" style="edgeStyle=none;endArrow=none;strokeWidth=3;strokeColor=#A29DC5;html=1;entryX=0.25;entryY=0;entryDx=0;entryDy=0;" edge="1" parent="1" source="1516" target="kbZLWcOoWII1aOp1QAB2-1612">
          <mxGeometry x="-1468" y="-273.5" width="100" height="100" as="geometry">
            <mxPoint x="401.31416399435057" y="848.306364689267" as="sourcePoint" />
            <mxPoint x="510" y="910" as="targetPoint" />
          </mxGeometry>
        </mxCell>
        <mxCell id="kbZLWcOoWII1aOp1QAB2-1612" value="К нему приходят проводить&lt;br&gt;&amp;nbsp;занятие" style="rounded=1;fillColor=#a29dc5;strokeColor=none;strokeWidth=3;shadow=0;html=1;fontColor=#FFFFFF;" vertex="1" parent="1">
          <mxGeometry x="621.5" y="913" width="180.5" height="43.5" as="geometry" />
        </mxCell>
        <mxCell id="kbZLWcOoWII1aOp1QAB2-1613" value="Гости / в гости" style="rounded=1;fillColor=#a29dc5;strokeColor=none;strokeWidth=3;shadow=0;html=1;fontColor=#FFFFFF;" vertex="1" parent="1">
          <mxGeometry x="438.5" y="956.5" width="170" height="40" as="geometry" />
        </mxCell>
        <mxCell id="kbZLWcOoWII1aOp1QAB2-1614" value="" style="edgeStyle=none;endArrow=none;strokeWidth=3;strokeColor=#A29DC5;html=1;entryX=0.75;entryY=0;entryDx=0;entryDy=0;" edge="1" parent="1" source="1516" target="kbZLWcOoWII1aOp1QAB2-1613">
          <mxGeometry x="-1468" y="-273.5" width="100" height="100" as="geometry">
            <mxPoint x="401.31416399435057" y="848.306364689267" as="sourcePoint" />
            <mxPoint x="422.74999999999955" y="910" as="targetPoint" />
          </mxGeometry>
        </mxCell>
        <mxCell id="kbZLWcOoWII1aOp1QAB2-1616" value="" style="edgeStyle=none;endArrow=none;strokeWidth=3;strokeColor=#A29DC5;html=1;" edge="1" parent="1" source="1516">
          <mxGeometry x="-1458" y="-263.5" width="100" height="100" as="geometry">
            <mxPoint x="438.7838817536708" y="810.8801644210482" as="sourcePoint" />
            <mxPoint x="740" y="870" as="targetPoint" />
          </mxGeometry>
        </mxCell>
        <mxCell id="kbZLWcOoWII1aOp1QAB2-1617" value="Отправить смайлик / записать видео / получить ответ &lt;br&gt;/посмотреть гео-позицию" style="rounded=1;fillColor=#a29dc5;strokeColor=none;strokeWidth=3;shadow=0;html=1;fontColor=#FFFFFF;" vertex="1" parent="1">
          <mxGeometry x="640" y="851.5" width="320" height="38.5" as="geometry" />
        </mxCell>
        <mxCell id="kbZLWcOoWII1aOp1QAB2-1618" value="" style="edgeStyle=none;endArrow=none;strokeWidth=3;strokeColor=#A29DC5;html=1;entryX=0.5;entryY=1;entryDx=0;entryDy=0;" edge="1" parent="1" source="1516" target="kbZLWcOoWII1aOp1QAB2-1619">
          <mxGeometry x="-1488" y="-293.5" width="100" height="100" as="geometry">
            <mxPoint x="435.8882870723269" y="765.1171927875066" as="sourcePoint" />
            <mxPoint x="440" y="620" as="targetPoint" />
          </mxGeometry>
        </mxCell>
        <mxCell id="kbZLWcOoWII1aOp1QAB2-1619" value="Побыть один, поиграть в игрушки" style="rounded=1;fillColor=#a29dc5;strokeColor=none;strokeWidth=3;shadow=0;html=1;fontColor=#FFFFFF;" vertex="1" parent="1">
          <mxGeometry x="333.75" y="476.5" width="266.25" height="40" as="geometry" />
        </mxCell>
        <mxCell id="kbZLWcOoWII1aOp1QAB2-1620" value="" style="edgeStyle=none;endArrow=none;strokeWidth=3;strokeColor=#F5AF58;html=1;" edge="1" parent="1">
          <mxGeometry x="253.5" y="49" width="100" height="100" as="geometry">
            <mxPoint x="830" y="1288" as="sourcePoint" />
            <mxPoint x="597" y="1400" as="targetPoint" />
          </mxGeometry>
        </mxCell>
        <mxCell id="kbZLWcOoWII1aOp1QAB2-1621" value="Радужный &lt;br&gt;(разноцветное)" style="rounded=1;fillColor=#f5af58;strokeColor=none;strokeWidth=3;shadow=0;html=1;fontColor=#FFFFFF;" vertex="1" parent="1">
          <mxGeometry x="480" y="1399" width="120" height="40" as="geometry" />
        </mxCell>
        <mxCell id="kbZLWcOoWII1aOp1QAB2-1622" value="" style="edgeStyle=none;endArrow=none;strokeWidth=3;strokeColor=#F5AF58;html=1;" edge="1" parent="1" source="1355" target="kbZLWcOoWII1aOp1QAB2-1623">
          <mxGeometry x="253.5" y="49" width="100" height="100" as="geometry">
            <mxPoint x="834.3589740462116" y="1248.0483579484712" as="sourcePoint" />
            <mxPoint x="1060" y="1140" as="targetPoint" />
          </mxGeometry>
        </mxCell>
        <mxCell id="kbZLWcOoWII1aOp1QAB2-1623" value="Мыльн пузыри" style="rounded=1;fillColor=#f5af58;strokeColor=none;strokeWidth=3;shadow=0;html=1;fontColor=#FFFFFF;" vertex="1" parent="1">
          <mxGeometry x="1250" y="1230.5" width="120" height="40" as="geometry" />
        </mxCell>
        <mxCell id="kbZLWcOoWII1aOp1QAB2-1624" value="" style="edgeStyle=none;endArrow=none;strokeWidth=3;strokeColor=#A29DC5;html=1;entryX=0.5;entryY=0;entryDx=0;entryDy=0;" edge="1" parent="1" source="1354" target="kbZLWcOoWII1aOp1QAB2-1625">
          <mxGeometry x="261" y="-93.5" width="100" height="100" as="geometry">
            <mxPoint x="1728.234263878237" y="1258.185512300159" as="sourcePoint" />
            <mxPoint x="1690" y="1350" as="targetPoint" />
          </mxGeometry>
        </mxCell>
        <mxCell id="kbZLWcOoWII1aOp1QAB2-1625" value="Pop-up" style="rounded=1;fillColor=#a29dc5;strokeColor=none;strokeWidth=3;shadow=0;html=1;fontColor=#FFFFFF;" vertex="1" parent="1">
          <mxGeometry x="1540" y="1367" width="101" height="32" as="geometry" />
        </mxCell>
        <mxCell id="kbZLWcOoWII1aOp1QAB2-1626" value="" style="edgeStyle=none;endArrow=none;strokeWidth=3;strokeColor=#A29DC5;html=1;exitX=0;exitY=1;exitDx=0;exitDy=0;" edge="1" parent="1" source="1354" target="kbZLWcOoWII1aOp1QAB2-1627">
          <mxGeometry x="271" y="-83.5" width="100" height="100" as="geometry">
            <mxPoint x="1680" y="1282.5" as="sourcePoint" />
            <mxPoint x="1580" y="1310" as="targetPoint" />
          </mxGeometry>
        </mxCell>
        <mxCell id="kbZLWcOoWII1aOp1QAB2-1627" value="и русс и англ" style="rounded=1;fillColor=#a29dc5;strokeColor=none;strokeWidth=3;shadow=0;html=1;fontColor=#FFFFFF;" vertex="1" parent="1">
          <mxGeometry x="1480" y="1320.5" width="101" height="32" as="geometry" />
        </mxCell>
        <mxCell id="kbZLWcOoWII1aOp1QAB2-1628" value="предпочитает печатные &lt;br&gt;(аудио не любит, &lt;br&gt;электронные не пробовали)" style="rounded=1;fillColor=#a29dc5;strokeColor=none;strokeWidth=3;shadow=0;html=1;fontColor=#FFFFFF;" vertex="1" parent="1">
          <mxGeometry x="1392" y="1246.5" width="218" height="70" as="geometry" />
        </mxCell>
        <mxCell id="kbZLWcOoWII1aOp1QAB2-1629" value="" style="edgeStyle=none;endArrow=none;strokeWidth=3;strokeColor=#A29DC5;html=1;exitX=0;exitY=0.5;exitDx=0;exitDy=0;entryX=0.5;entryY=0;entryDx=0;entryDy=0;" edge="1" parent="1" source="1354" target="kbZLWcOoWII1aOp1QAB2-1628">
          <mxGeometry x="281" y="-73.5" width="100" height="100" as="geometry">
            <mxPoint x="1637.5735931288073" y="1264.9264068711925" as="sourcePoint" />
            <mxPoint x="1590" y="1320" as="targetPoint" />
          </mxGeometry>
        </mxCell>
        <mxCell id="kbZLWcOoWII1aOp1QAB2-1630" value="&lt;font style=&quot;font-size: 13px ; line-height: 1.1&quot;&gt;Аденоиды 2ст -&amp;gt; небольшое снижение слуха,&amp;nbsp;шепелявит;&amp;nbsp;весенняя аллергия на цветение березы; бруксизм;&amp;nbsp;&lt;/font&gt;" style="whiteSpace=wrap;html=1;shadow=0;fontSize=30;fontColor=#2F5B7C;fontStyle=1;strokeColor=#2F5B7C;strokeWidth=6;fillColor=#FFFFFF;" vertex="1" parent="1">
          <mxGeometry x="1060" y="1570" width="777.62" height="50" as="geometry" />
        </mxCell>
        <mxCell id="kbZLWcOoWII1aOp1QAB2-1633" value="бывает чрезмерно назойливый &lt;br&gt;и нетерпимый (хочу прямо сейчас)" style="rounded=1;fillColor=#f08e81;strokeColor=none;strokeWidth=3;shadow=0;html=1;fontColor=#FFFFFF;" vertex="1" parent="1">
          <mxGeometry x="1530" y="540" width="210" height="40" as="geometry" />
        </mxCell>
        <mxCell id="kbZLWcOoWII1aOp1QAB2-1636" value="" style="edgeStyle=none;endArrow=none;strokeWidth=3;strokeColor=#F08E81;html=1;" edge="1" parent="1" source="1352">
          <mxGeometry x="31" y="106.5" width="100" height="100" as="geometry">
            <mxPoint x="1739.8072285849935" y="364.9558228743257" as="sourcePoint" />
            <mxPoint x="1620" y="271" as="targetPoint" />
            <Array as="points">
              <mxPoint x="1640" y="290" />
            </Array>
          </mxGeometry>
        </mxCell>
        <mxCell id="kbZLWcOoWII1aOp1QAB2-1637" value="Любознательный" style="rounded=1;fillColor=#f08e81;strokeColor=none;strokeWidth=3;shadow=0;html=1;fontColor=#FFFFFF;" vertex="1" parent="1">
          <mxGeometry x="1490" y="251" width="141" height="21" as="geometry" />
        </mxCell>
        <mxCell id="kbZLWcOoWII1aOp1QAB2-1638" value="" style="edgeStyle=none;endArrow=none;strokeWidth=3;strokeColor=#F08E81;html=1;startArrow=none;exitX=0.337;exitY=0.036;exitDx=0;exitDy=0;exitPerimeter=0;" edge="1" parent="1" source="1352">
          <mxGeometry x="41" y="116.5" width="100" height="100" as="geometry">
            <mxPoint x="1763.4699999999998" y="371.9000000000001" as="sourcePoint" />
            <mxPoint x="1632" y="190" as="targetPoint" />
          </mxGeometry>
        </mxCell>
        <mxCell id="kbZLWcOoWII1aOp1QAB2-1639" value="Любит поболтать" style="rounded=1;fillColor=#f08e81;strokeColor=none;strokeWidth=3;shadow=0;html=1;fontColor=#FFFFFF;" vertex="1" parent="1">
          <mxGeometry x="1516" y="172.75" width="141" height="21" as="geometry" />
        </mxCell>
        <mxCell id="kbZLWcOoWII1aOp1QAB2-1642" value="Чистые руки&amp;nbsp;" style="rounded=1;fillColor=#f5af58;strokeColor=none;strokeWidth=3;shadow=0;html=1;fontColor=#FFFFFF;" vertex="1" parent="1">
          <mxGeometry x="1075" y="1278.5" width="145" height="29.5" as="geometry" />
        </mxCell>
        <mxCell id="kbZLWcOoWII1aOp1QAB2-1643" value="" style="edgeStyle=none;endArrow=none;strokeWidth=3;strokeColor=#F5AF58;html=1;" edge="1" parent="1" source="1355" target="kbZLWcOoWII1aOp1QAB2-1642">
          <mxGeometry x="263.5" y="59" width="100" height="100" as="geometry">
            <mxPoint x="944.9456198510843" y="1294.603503047881" as="sourcePoint" />
            <mxPoint x="1139.4401544401544" y="1380" as="targetPoint" />
          </mxGeometry>
        </mxCell>
        <mxCell id="kbZLWcOoWII1aOp1QAB2-1644" value="&lt;font size=&quot;3&quot;&gt;Одежда 110-116, &lt;br&gt;обувь 26-27, &lt;br&gt;вес 17,5 кг&lt;/font&gt;" style="ellipse;shape=cloud;whiteSpace=wrap;html=1;shadow=0;fontSize=30;fontColor=#2F5B7C;fontStyle=1;strokeColor=#2F5B7C;strokeWidth=6;fillColor=#FFFFFF;" vertex="1" parent="1">
          <mxGeometry x="1035.25" y="946.5" width="290" height="150" as="geometry" />
        </mxCell>
        <mxCell id="kbZLWcOoWII1aOp1QAB2-1647" value="Правила/&quot;Ритуалы&quot; (чистить зубы, &lt;br&gt;читать книги перед сном)" style="rounded=1;fillColor=#f5af58;strokeColor=none;strokeWidth=3;shadow=0;html=1;fontColor=#FFFFFF;" vertex="1" parent="1">
          <mxGeometry x="660.87" y="986.25" width="225" height="43.5" as="geometry" />
        </mxCell>
        <mxCell id="kbZLWcOoWII1aOp1QAB2-1648" value="" style="edgeStyle=none;endArrow=none;strokeWidth=3;strokeColor=#F5AF58;html=1;exitX=0.5;exitY=0;exitDx=0;exitDy=0;entryX=0.75;entryY=1;entryDx=0;entryDy=0;" edge="1" parent="1" source="1355" target="kbZLWcOoWII1aOp1QAB2-1647">
          <mxGeometry x="263.5" y="59" width="100" height="100" as="geometry">
            <mxPoint x="848.1186193918984" y="1227.5354802382403" as="sourcePoint" />
            <mxPoint x="752.3763779527558" y="1130.0000000000002" as="targetPoint" />
          </mxGeometry>
        </mxCell>
        <mxCell id="kbZLWcOoWII1aOp1QAB2-1649" value="Любит пробовать новое с родителем &lt;br&gt;или чтоб сначала можно было просто посмотреть" style="rounded=1;fillColor=#f5af58;strokeColor=none;strokeWidth=3;shadow=0;html=1;fontColor=#FFFFFF;" vertex="1" parent="1">
          <mxGeometry x="541.62" y="1080" width="289" height="36.5" as="geometry" />
        </mxCell>
        <mxCell id="kbZLWcOoWII1aOp1QAB2-1650" value="Любит повторять из раза в раз если понравилось" style="rounded=1;fillColor=#f5af58;strokeColor=none;strokeWidth=3;shadow=0;html=1;fontColor=#FFFFFF;" vertex="1" parent="1">
          <mxGeometry x="553.5" y="1126.75" width="289" height="23.25" as="geometry" />
        </mxCell>
        <mxCell id="kbZLWcOoWII1aOp1QAB2-1651" value="" style="edgeStyle=none;endArrow=none;strokeWidth=3;strokeColor=#F5AF58;html=1;" edge="1" parent="1" source="1355" target="kbZLWcOoWII1aOp1QAB2-1650">
          <mxGeometry x="243.5" y="39" width="100" height="100" as="geometry">
            <mxPoint x="830.7853169060995" y="1226.1792341582006" as="sourcePoint" />
            <mxPoint x="611.6680622009571" y="1073.25" as="targetPoint" />
          </mxGeometry>
        </mxCell>
      </root>
    </mxGraphModel>
  </diagram>
</mxfile>
